<?xml version="1.0" encoding="UTF-8"?>
<!DOCTYPE svg PUBLIC "-//W3C//DTD SVG 1.1//EN" "http://www.w3.org/Graphics/SVG/1.1/DTD/svg11.dtd">
<svg xmlns="http://www.w3.org/2000/svg" version="1.1" width="264px" height="190px" style="shape-rendering:geometricPrecision; text-rendering:geometricPrecision; image-rendering:optimizeQuality; fill-rule:evenodd; clip-rule:evenodd" xmlns:xlink="http://www.w3.org/1999/xlink">
<g><path style="opacity:0.098" fill="#dde0e1" d="M 93.5,7.5 C 88.0891,5.69211 83.0891,6.35877 78.5,9.5C 80.0715,6.36632 82.7382,4.69966 86.5,4.5C 89.3598,4.55496 91.6931,5.55496 93.5,7.5 Z"/></g>
<g><path style="opacity:0.004" fill="#f5f5f5" d="M 93.5,7.5 C 94.8333,7.5 95.5,8.16667 95.5,9.5C 94.5,9.16667 93.8333,8.5 93.5,7.5 Z"/></g>
<g><path style="opacity:0.125" fill="#d0d4d5" d="M 78.5,9.5 C 78.573,11.0269 77.9063,12.0269 76.5,12.5C 76.427,10.9731 77.0937,9.97306 78.5,9.5 Z"/></g>
<g><path style="opacity:0.118" fill="#d2d6d7" d="M 95.5,9.5 C 96.9063,9.97306 97.573,10.9731 97.5,12.5C 96.0937,12.0269 95.427,11.0269 95.5,9.5 Z"/></g>
<g><path style="opacity:1" fill="#1c343b" d="M 93.5,7.5 C 93.8333,8.5 94.5,9.16667 95.5,9.5C 95.427,11.0269 96.0937,12.0269 97.5,12.5C 98.6861,14.8744 98.6861,17.2078 97.5,19.5C 96.6618,19.8417 96.3284,20.5084 96.5,21.5C 95.5028,21.5299 94.8361,21.0299 94.5,20C 95.3862,17.8882 95.3862,15.7216 94.5,13.5C 92.6203,13.2291 91.287,13.8958 90.5,15.5C 90.1667,15.5 89.8333,15.5 89.5,15.5C 89.1667,15.5 88.8333,15.5 88.5,15.5C 85.9825,12.9258 84.3158,13.5925 83.5,17.5C 84.1667,18.5 84.8333,19.5 85.5,20.5C 84.5768,21.3029 83.5768,21.4696 82.5,21C 82.8333,20.6667 83.1667,20.3333 83.5,20C 82.7511,18.2663 82.2511,16.433 82,14.5C 81.6827,16.3008 81.016,16.6341 80,15.5C 79.3828,16.4491 79.5494,17.2825 80.5,18C 79.8333,18.3333 79.1667,18.6667 78.5,19C 79.0611,20.676 80.0611,22.0094 81.5,23C 77.462,24.7637 74.1287,26.597 71.5,28.5C 71.2627,27.209 71.596,26.209 72.5,25.5C 74.1288,24.3747 75.6288,23.0414 77,21.5C 77.6917,20.5632 77.525,19.8966 76.5,19.5C 75.3139,17.2078 75.3139,14.8744 76.5,12.5C 77.9063,12.0269 78.573,11.0269 78.5,9.5C 83.0891,6.35877 88.0891,5.69211 93.5,7.5 Z M 88.5,15.5 C 88.8333,15.5 89.1667,15.5 89.5,15.5C 88.5752,19.4453 87.4085,19.4453 86,15.5C 85.2917,16.3805 84.4584,17.0472 83.5,17.5C 84.3158,13.5925 85.9825,12.9258 88.5,15.5 Z"/></g>
<g><path style="opacity:0.004" fill="#fefffe" d="M 75.5,20.5 C 74.8333,19.1667 74.8333,19.1667 75.5,20.5 Z"/></g>
<g><path style="opacity:0.999" fill="#0a262c" d="M 96.5,21.5 C 98.1423,22.803 99.8089,24.1363 101.5,25.5C 102.404,26.209 102.737,27.209 102.5,28.5C 102.5,30.5 102.5,32.5 102.5,34.5C 99.1501,34.665 95.8168,34.4983 92.5,34C 94.8782,33.4888 97.2115,32.8221 99.5,32C 97.7397,31.0347 97.4063,29.868 98.5,28.5C 101.055,31.2508 102.055,30.5841 101.5,26.5C 94.5097,26.0009 87.5097,25.6675 80.5,25.5C 80.5,26.5 80.5,27.5 80.5,28.5C 78.8958,29.287 78.2291,30.6203 78.5,32.5C 82.3123,33.3238 86.3123,33.8238 90.5,34C 88.3746,35.4978 86.0412,35.6644 83.5,34.5C 81.4075,34.4858 79.5741,35.1524 78,36.5C 77.6062,34.0454 76.4396,32.0454 74.5,30.5C 73.265,31.3398 72.265,32.3398 71.5,33.5C 71.5,31.8333 71.5,30.1667 71.5,28.5C 74.1287,26.597 77.462,24.7637 81.5,23C 80.0611,22.0094 79.0611,20.676 78.5,19C 79.1667,18.6667 79.8333,18.3333 80.5,18C 79.5494,17.2825 79.3828,16.4491 80,15.5C 81.016,16.6341 81.6827,16.3008 82,14.5C 82.2511,16.433 82.7511,18.2663 83.5,20C 83.1667,20.3333 82.8333,20.6667 82.5,21C 83.5768,21.4696 84.5768,21.3029 85.5,20.5C 88.8333,20.5 90.5,18.8333 90.5,15.5C 91.287,13.8958 92.6203,13.2291 94.5,13.5C 95.3862,15.7216 95.3862,17.8882 94.5,20C 94.8361,21.0299 95.5028,21.5299 96.5,21.5 Z"/></g>
<g><path style="opacity:0.007" fill="#f0f1f2" d="M 89.5,15.5 C 89.8333,15.5 90.1667,15.5 90.5,15.5C 90.5,18.8333 88.8333,20.5 85.5,20.5C 84.8333,19.5 84.1667,18.5 83.5,17.5C 84.4584,17.0472 85.2917,16.3805 86,15.5C 87.4085,19.4453 88.5752,19.4453 89.5,15.5 Z"/></g>
<g><path style="opacity:0.098" fill="#d5d9d9" d="M 97.5,19.5 C 99.2516,21.2459 100.585,23.2459 101.5,25.5C 99.8089,24.1363 98.1423,22.803 96.5,21.5C 96.3284,20.5084 96.6618,19.8417 97.5,19.5 Z"/></g>
<g><path style="opacity:0.357" fill="#c9cece" d="M 76.5,19.5 C 77.525,19.8966 77.6917,20.5632 77,21.5C 75.6288,23.0414 74.1288,24.3747 72.5,25.5C 73.075,23.5887 74.075,21.922 75.5,20.5C 76.1667,20.5 76.5,20.1667 76.5,19.5 Z"/></g>
<g><path style="opacity:1" fill="#d64e50" d="M 92.5,28.5 C 90.9522,29.7943 88.9522,30.4609 86.5,30.5C 84.0478,30.4609 82.0478,29.7943 80.5,28.5C 84.633,27.2737 88.633,27.2737 92.5,28.5 Z"/></g>
<g><path style="opacity:1" fill="#95474a" d="M 80.5,28.5 C 82.0478,29.7943 84.0478,30.4609 86.5,30.5C 88.9522,30.4609 90.9522,29.7943 92.5,28.5C 93.5,28.5 94.5,28.5 95.5,28.5C 95.5,29.8333 95.5,31.1667 95.5,32.5C 89.789,31.2625 84.1223,31.2625 78.5,32.5C 78.2291,30.6203 78.8958,29.287 80.5,28.5 Z"/></g>
<g><path style="opacity:0.004" fill="#dee0e1" d="M 102.5,28.5 C 103.163,30.0419 103.83,31.7086 104.5,33.5C 109.249,35.537 113.249,38.537 116.5,42.5C 115.833,42.5 115.167,42.5 114.5,42.5C 111.3,38.6337 107.3,35.9671 102.5,34.5C 102.5,32.5 102.5,30.5 102.5,28.5 Z"/></g>
<g><path style="opacity:1" fill="#0d2c33" d="M 71.5,34.5 C 73.9289,35.8551 75.2623,37.5217 75.5,39.5C 72.1441,38.8622 70.1441,40.1956 69.5,43.5C 67.1421,42.8216 64.9754,42.4883 63,42.5C 61.848,44.6487 60.348,46.482 58.5,48C 58.9574,48.414 59.2907,48.914 59.5,49.5C 57.6414,51.1924 55.6414,52.6924 53.5,54C 54.5762,55.7261 54.7429,57.5594 54,59.5C 53.3333,58.1667 52.6667,58.1667 52,59.5C 50.331,57.8309 49.4977,55.8309 49.5,53.5C 50.9063,53.0269 51.573,52.0269 51.5,50.5C 51.3284,49.5084 51.6618,48.8417 52.5,48.5C 56.2976,45.2039 59.9643,41.7039 63.5,38C 66.0711,36.5462 68.7378,35.3795 71.5,34.5 Z"/></g>
<g><path style="opacity:0.996" fill="#5b6b6c" d="M 75.5,39.5 C 75.8333,39.5 76.1667,39.5 76.5,39.5C 76.5,39.8333 76.5,40.1667 76.5,40.5C 75.8333,40.5 75.5,40.8333 75.5,41.5C 74.5084,41.3284 73.8417,41.6618 73.5,42.5C 72.1667,42.8333 70.8333,43.1667 69.5,43.5C 70.1441,40.1956 72.1441,38.8622 75.5,39.5 Z"/></g>
<g><path style="opacity:1" fill="#3a1d20" d="M 82.5,38.5 C 86.9811,37.3516 91.6478,37.1849 96.5,38C 97.8584,38.9344 99.1917,39.7677 100.5,40.5C 99.8333,40.5 99.1667,40.5 98.5,40.5C 93.4219,38.6683 88.0886,38.0016 82.5,38.5 Z"/></g>
<g><path style="opacity:1" fill="#16242b" d="M 102.5,34.5 C 107.3,35.9671 111.3,38.6337 114.5,42.5C 112.516,42.484 111.516,43.484 111.5,45.5C 113.033,47.6268 114.033,49.9601 114.5,52.5C 113.833,52.1667 113.167,51.8333 112.5,51.5C 112.141,49.629 111.141,48.129 109.5,47C 106.079,45.3015 103.079,43.1348 100.5,40.5C 99.1917,39.7677 97.8584,38.9344 96.5,38C 91.6478,37.1849 86.9811,37.3516 82.5,38.5C 80.4352,38.5172 78.4352,38.8505 76.5,39.5C 76.1667,39.5 75.8333,39.5 75.5,39.5C 75.2623,37.5217 73.9289,35.8551 71.5,34.5C 71.5,34.1667 71.5,33.8333 71.5,33.5C 72.265,32.3398 73.265,31.3398 74.5,30.5C 76.4396,32.0454 77.6062,34.0454 78,36.5C 79.5741,35.1524 81.4075,34.4858 83.5,34.5C 86.0412,35.6644 88.3746,35.4978 90.5,34C 86.3123,33.8238 82.3123,33.3238 78.5,32.5C 84.1223,31.2625 89.789,31.2625 95.5,32.5C 95.5,31.1667 95.5,29.8333 95.5,28.5C 94.5,28.5 93.5,28.5 92.5,28.5C 88.633,27.2737 84.633,27.2737 80.5,28.5C 80.5,27.5 80.5,26.5 80.5,25.5C 87.5097,25.6675 94.5097,26.0009 101.5,26.5C 102.055,30.5841 101.055,31.2508 98.5,28.5C 97.4063,29.868 97.7397,31.0347 99.5,32C 97.2115,32.8221 94.8782,33.4888 92.5,34C 95.8168,34.4983 99.1501,34.665 102.5,34.5 Z"/></g>
<g><path style="opacity:0.008" fill="#eedad8" d="M 82.5,38.5 C 82.1667,39.5 81.5,40.1667 80.5,40.5C 79.0158,42.0737 77.3492,43.407 75.5,44.5C 70.9568,46.3717 67.2901,49.3717 64.5,53.5C 63.8333,53.8333 63.1667,54.1667 62.5,54.5C 65.4642,49.8686 69.1308,45.8686 73.5,42.5C 74.4916,42.6716 75.1583,42.3382 75.5,41.5C 78.517,41.4437 78.8503,41.1103 76.5,40.5C 76.5,40.1667 76.5,39.8333 76.5,39.5C 78.4352,38.8505 80.4352,38.5172 82.5,38.5 Z"/></g>
<g><path style="opacity:0.718" fill="#b8bfc1" d="M 71.5,28.5 C 71.5,30.1667 71.5,31.8333 71.5,33.5C 71.5,33.8333 71.5,34.1667 71.5,34.5C 68.7378,35.3795 66.0711,36.5462 63.5,38C 59.9643,41.7039 56.2976,45.2039 52.5,48.5C 56.5655,41.7727 62.2322,36.7727 69.5,33.5C 70.1698,31.7086 70.8365,30.0419 71.5,28.5 Z"/></g>
<g><path style="opacity:1" fill="#fc4435" d="M 93.5,44.5 C 96.4638,47.7553 95.7971,48.7553 91.5,47.5C 88.7096,49.3328 89.0429,50.3328 92.5,50.5C 90.7621,52.5787 89.4288,54.912 88.5,57.5C 89.2554,61.8251 88.9221,66.1584 87.5,70.5C 86.7348,71.6119 85.7348,72.2786 84.5,72.5C 86.0873,68.9768 86.5873,65.3101 86,61.5C 84.8873,60.695 83.7206,60.0283 82.5,59.5C 80.014,57.7412 78.6807,55.5745 78.5,53C 80.1261,53.1953 81.7928,53.1953 83.5,53C 84.1667,51 84.8333,49 85.5,47C 88.2848,46.3425 90.9514,45.5091 93.5,44.5 Z"/></g>
<g><path style="opacity:0.09" fill="#d4d8d9" d="M 116.5,42.5 C 118.914,43.9108 120.581,45.9108 121.5,48.5C 119.086,47.0892 117.419,45.0892 116.5,42.5 Z"/></g>
<g><path style="opacity:1" fill="#c2332a" d="M 98.5,40.5 C 99.1667,40.5 99.8333,40.5 100.5,40.5C 103.079,43.1348 106.079,45.3015 109.5,47C 111.141,48.129 112.141,49.629 112.5,51.5C 112.703,53.0443 113.37,54.3777 114.5,55.5C 113.757,56.1818 113.091,56.8485 112.5,57.5C 111.005,57.4148 110.005,58.0815 109.5,59.5C 110.074,61.0589 110.74,62.5589 111.5,64C 109.972,65.6477 109.305,67.6477 109.5,70C 109.968,72.8573 110.134,75.6906 110,78.5C 108.211,80.229 106.044,80.8957 103.5,80.5C 104.357,78.5965 105.023,76.5965 105.5,74.5C 104.142,71.4117 103.142,68.245 102.5,65C 103.687,63.9805 104.687,62.8139 105.5,61.5C 104.471,61.7036 103.471,61.2036 102.5,60C 103.167,59.6667 103.833,59.3333 104.5,59C 104.102,55.9808 103.102,52.8141 101.5,49.5C 100.975,48.8076 100.308,48.3076 99.5,48C 100.759,47.0766 102.092,46.2432 103.5,45.5C 101.433,44.2333 99.7665,42.5666 98.5,40.5 Z"/></g>
<g><path style="opacity:0.149" fill="#cdd1d3" d="M 51.5,50.5 C 51.573,52.0269 50.9063,53.0269 49.5,53.5C 49.427,51.9731 50.0937,50.9731 51.5,50.5 Z"/></g>
<g><path style="opacity:1" fill="#f94a38" d="M 93.5,44.5 C 90.9514,45.5091 88.2848,46.3425 85.5,47C 84.8333,49 84.1667,51 83.5,53C 81.7928,53.1953 80.1261,53.1953 78.5,53C 78.6807,55.5745 80.014,57.7412 82.5,59.5C 83.0102,62.3878 82.3435,64.7211 80.5,66.5C 80.7684,59.0881 77.4351,56.0881 70.5,57.5C 68.9731,57.427 67.9731,58.0937 67.5,59.5C 67.1667,59.5 66.8333,59.5 66.5,59.5C 65.2502,59.5774 64.4169,60.244 64,61.5C 63.3985,58.7795 63.5651,56.1128 64.5,53.5C 67.2901,49.3717 70.9568,46.3717 75.5,44.5C 77.9267,44.477 80.26,43.977 82.5,43C 83.3366,41.9887 83.67,40.8221 83.5,39.5C 88.33,39.387 92.9967,40.2203 97.5,42C 95.8333,42.3333 94.1667,42.6667 92.5,43C 93.056,43.3826 93.3893,43.8826 93.5,44.5 Z"/></g>
<g><path style="opacity:0.012" fill="#eeefef" d="M 192.5,55.5 C 190.359,52.9814 188.359,52.9814 186.5,55.5C 186.167,55.5 185.833,55.5 185.5,55.5C 185.559,53.2776 186.725,52.2776 189,52.5C 191.275,52.2776 192.441,53.2776 192.5,55.5 Z"/></g>
<g><path style="opacity:0.075" fill="#fbdfdd" d="M 70.5,57.5 C 77.4351,56.0881 80.7684,59.0881 80.5,66.5C 79.8571,68.0764 78.8571,69.4097 77.5,70.5C 79.45,67.1436 79.6166,63.8102 78,60.5C 76.005,58.253 73.505,57.253 70.5,57.5 Z"/></g>
<g><path style="opacity:1" fill="#ea4436" d="M 82.5,38.5 C 88.0886,38.0016 93.4219,38.6683 98.5,40.5C 99.7665,42.5666 101.433,44.2333 103.5,45.5C 102.092,46.2432 100.759,47.0766 99.5,48C 100.308,48.3076 100.975,48.8076 101.5,49.5C 103.102,52.8141 104.102,55.9808 104.5,59C 103.833,59.3333 103.167,59.6667 102.5,60C 103.471,61.2036 104.471,61.7036 105.5,61.5C 104.687,62.8139 103.687,63.9805 102.5,65C 103.142,68.245 104.142,71.4117 105.5,74.5C 105.023,76.5965 104.357,78.5965 103.5,80.5C 103.167,80.5 102.833,80.5 102.5,80.5C 88.1667,80.5 73.8333,80.5 59.5,80.5C 59.3082,76.0981 60.3082,72.0981 62.5,68.5C 62.4476,72.1981 62.1143,75.8648 61.5,79.5C 66.8333,79.5 72.1667,79.5 77.5,79.5C 84.8409,79.6663 92.1742,79.4997 99.5,79C 98.8333,78 98.1667,77 97.5,76C 98.7683,73.8593 99.4349,71.5259 99.5,69C 98.6818,63.5294 98.3484,58.0294 98.5,52.5C 96.3618,52.297 94.6951,51.297 93.5,49.5C 92.8933,49.6236 92.56,49.9569 92.5,50.5C 89.0429,50.3328 88.7096,49.3328 91.5,47.5C 95.7971,48.7553 96.4638,47.7553 93.5,44.5C 93.3893,43.8826 93.056,43.3826 92.5,43C 94.1667,42.6667 95.8333,42.3333 97.5,42C 92.9967,40.2203 88.33,39.387 83.5,39.5C 83.67,40.8221 83.3366,41.9887 82.5,43C 80.26,43.977 77.9267,44.477 75.5,44.5C 77.3492,43.407 79.0158,42.0737 80.5,40.5C 81.5,40.1667 82.1667,39.5 82.5,38.5 Z"/></g>
<g><path style="opacity:0.08" fill="#f9f3f2" d="M 192.5,55.5 C 199.922,57.4249 207.089,57.7583 214,56.5C 217.459,57.1334 220.959,57.8 224.5,58.5C 224.376,59.1067 224.043,59.44 223.5,59.5C 213.347,58.5058 203.014,58.1724 192.5,58.5C 192.5,57.5 192.5,56.5 192.5,55.5 Z"/></g>
<g><path style="opacity:0.004" fill="#fae7e6" d="M 70.5,57.5 C 70.0269,58.9063 69.0269,59.573 67.5,59.5C 67.9731,58.0937 68.9731,57.427 70.5,57.5 Z"/></g>
<g><path style="opacity:1" fill="#2f3b3e" d="M 114.5,42.5 C 115.167,42.5 115.833,42.5 116.5,42.5C 117.419,45.0892 119.086,47.0892 121.5,48.5C 123.592,51.0884 124.925,54.0884 125.5,57.5C 125.41,60.1522 126.076,62.4855 127.5,64.5C 128.833,85.5 128.833,106.5 127.5,127.5C 127.667,108.164 127.5,88.8305 127,69.5C 126.311,66.5919 125.145,63.9252 123.5,61.5C 122.669,67.8072 122.169,74.1406 122,80.5C 121.722,81.4158 121.222,82.0825 120.5,82.5C 120.5,82.1667 120.5,81.8333 120.5,81.5C 122.063,70.9624 120.063,61.2958 114.5,52.5C 114.033,49.9601 113.033,47.6268 111.5,45.5C 111.516,43.484 112.516,42.484 114.5,42.5 Z"/></g>
<g><path style="opacity:1" fill="#de675a" d="M 192.5,58.5 C 203.014,58.1724 213.347,58.5058 223.5,59.5C 220.833,62.8333 217.833,65.8333 214.5,68.5C 214.5,67.5 214.5,66.5 214.5,65.5C 214.354,63.0576 215.187,62.3909 217,63.5C 217.49,62.2068 217.657,60.8734 217.5,59.5C 209.5,59.5 201.5,59.5 193.5,59.5C 193.5,65.8333 193.5,72.1667 193.5,78.5C 193.5,78.8333 193.5,79.1667 193.5,79.5C 193.167,79.5 192.833,79.5 192.5,79.5C 192.5,72.5 192.5,65.5 192.5,58.5 Z"/></g>
<g><path style="opacity:0.965" fill="#758283" d="M 125.5,57.5 C 126.924,59.5145 127.59,61.8478 127.5,64.5C 126.076,62.4855 125.41,60.1522 125.5,57.5 Z"/></g>
<g><path style="opacity:1" fill="#243a43" d="M 69.5,43.5 C 61.4716,49.2008 56.1383,56.8675 53.5,66.5C 52.5318,68.6074 52.1984,70.9407 52.5,73.5C 50.6962,63.195 49.3628,63.195 48.5,73.5C 46.4178,72.4151 46.0844,70.9151 47.5,69C 46.9056,68.5357 46.2389,68.369 45.5,68.5C 45.5,67.1667 45.5,65.8333 45.5,64.5C 46.3382,64.1583 46.6716,63.4916 46.5,62.5C 46.5275,59.0836 47.5275,56.0836 49.5,53.5C 49.4977,55.8309 50.331,57.8309 52,59.5C 52.6667,58.1667 53.3333,58.1667 54,59.5C 54.7429,57.5594 54.5762,55.7261 53.5,54C 55.6414,52.6924 57.6414,51.1924 59.5,49.5C 59.2907,48.914 58.9574,48.414 58.5,48C 60.348,46.482 61.848,44.6487 63,42.5C 64.9754,42.4883 67.1421,42.8216 69.5,43.5 Z"/></g>
<g><path style="opacity:1" fill="#e49188" d="M 62.5,54.5 C 61.0132,60.2405 59.6798,65.9072 58.5,71.5C 57.8179,65.2341 59.1512,59.5675 62.5,54.5 Z"/></g>
<g><path style="opacity:1" fill="#fa4538" d="M 77.5,79.5 C 77.5,78.5 77.5,77.5 77.5,76.5C 82.2137,76.8266 86.8804,76.4933 91.5,75.5C 90.2402,74.6184 89.0736,73.6184 88,72.5C 86.7083,73.7911 85.5417,73.7911 84.5,72.5C 85.7348,72.2786 86.7348,71.6119 87.5,70.5C 88.9221,66.1584 89.2554,61.8251 88.5,57.5C 89.4288,54.912 90.7621,52.5787 92.5,50.5C 92.56,49.9569 92.8933,49.6236 93.5,49.5C 94.6951,51.297 96.3618,52.297 98.5,52.5C 98.3484,58.0294 98.6818,63.5294 99.5,69C 99.4349,71.5259 98.7683,73.8593 97.5,76C 98.1667,77 98.8333,78 99.5,79C 92.1742,79.4997 84.8409,79.6663 77.5,79.5 Z"/></g>
<g><path style="opacity:0.008" fill="#f4f5f6" d="M 46.5,62.5 C 46.6716,63.4916 46.3382,64.1583 45.5,64.5C 44.2426,63.3774 44.5759,62.7107 46.5,62.5 Z"/></g>
<g><path style="opacity:0.247" fill="#f3c9c5" d="M 66.5,59.5 C 66.8333,59.5 67.1667,59.5 67.5,59.5C 66.8413,62.4552 66.5079,65.4552 66.5,68.5C 65.3187,65.6377 65.3187,62.6377 66.5,59.5 Z"/></g>
<g><path style="opacity:1" fill="#0f242c" d="M 192.5,55.5 C 192.5,56.5 192.5,57.5 192.5,58.5C 192.5,65.5 192.5,72.5 192.5,79.5C 192.5,79.8333 192.5,80.1667 192.5,80.5C 192.5,86.1667 192.5,91.8333 192.5,97.5C 191.834,94.9723 191.168,92.3056 190.5,89.5C 189.572,91.3348 188.406,91.6682 187,90.5C 186.5,78.8381 186.333,67.1714 186.5,55.5C 188.359,52.9814 190.359,52.9814 192.5,55.5 Z"/></g>
<g><path style="opacity:1" fill="#ec6456" d="M 64.5,53.5 C 63.5651,56.1128 63.3985,58.7795 64,61.5C 64.4169,60.244 65.2502,59.5774 66.5,59.5C 65.3187,62.6377 65.3187,65.6377 66.5,68.5C 67.3382,68.8417 67.6716,69.5084 67.5,70.5C 67.8743,72.9497 69.3743,73.9497 72,73.5C 74.1782,73.6052 76.0115,72.9385 77.5,71.5C 77.3718,73.0898 76.7051,74.4231 75.5,75.5C 71.8691,74.6479 68.2024,73.9812 64.5,73.5C 64.9227,71.2188 64.256,69.5521 62.5,68.5C 60.3082,72.0981 59.3082,76.0981 59.5,80.5C 73.8333,80.5 88.1667,80.5 102.5,80.5C 102.5,80.8333 102.5,81.1667 102.5,81.5C 87.8333,81.5 73.1667,81.5 58.5,81.5C 57.2185,78.2693 57.2185,74.9359 58.5,71.5C 59.6798,65.9072 61.0132,60.2405 62.5,54.5C 63.1667,54.1667 63.8333,53.8333 64.5,53.5 Z"/></g>
<g><path style="opacity:1" fill="#ba3630" d="M 112.5,51.5 C 113.167,51.8333 113.833,52.1667 114.5,52.5C 120.063,61.2958 122.063,70.9624 120.5,81.5C 119.167,81.5 117.833,81.5 116.5,81.5C 116.804,80.8501 117.137,80.1835 117.5,79.5C 115.774,74.997 115.107,70.497 115.5,66C 114.811,63.0504 113.811,60.2171 112.5,57.5C 113.091,56.8485 113.757,56.1818 114.5,55.5C 113.37,54.3777 112.703,53.0443 112.5,51.5 Z"/></g>
<g><path style="opacity:1" fill="#f14634" d="M 214.5,65.5 C 212.984,66.8997 211.317,68.233 209.5,69.5C 206.123,75.8577 200.79,78.8577 193.5,78.5C 193.5,72.1667 193.5,65.8333 193.5,59.5C 201.5,59.5 209.5,59.5 217.5,59.5C 217.657,60.8734 217.49,62.2068 217,63.5C 215.187,62.3909 214.354,63.0576 214.5,65.5 Z"/></g>
<g><path style="opacity:1" fill="#fc4637" d="M 196.5,60.5 C 201.875,60.1718 207.208,60.5052 212.5,61.5C 211.147,62.6853 209.98,64.0186 209,65.5C 207.506,64.2528 206.006,64.2528 204.5,65.5C 205.494,68.3992 204.494,69.0659 201.5,67.5C 200.5,69.1667 199.167,70.5 197.5,71.5C 198.879,72.8626 198.713,73.8626 197,74.5C 195.115,74.1379 194.281,72.9713 194.5,71C 195.032,67.4293 195.699,63.9293 196.5,60.5 Z"/></g>
<g><path style="opacity:1" fill="#902420" d="M 112.5,57.5 C 113.811,60.2171 114.811,63.0504 115.5,66C 115.107,70.497 115.774,74.997 117.5,79.5C 117.137,80.1835 116.804,80.8501 116.5,81.5C 111.833,81.5 107.167,81.5 102.5,81.5C 102.5,81.1667 102.5,80.8333 102.5,80.5C 102.833,80.5 103.167,80.5 103.5,80.5C 106.044,80.8957 108.211,80.229 110,78.5C 110.134,75.6906 109.968,72.8573 109.5,70C 109.305,67.6477 109.972,65.6477 111.5,64C 110.74,62.5589 110.074,61.0589 109.5,59.5C 110.005,58.0815 111.005,57.4148 112.5,57.5 Z"/></g>
<g><path style="opacity:1" fill="#fb463b" d="M 82.5,59.5 C 83.7206,60.0283 84.8873,60.695 86,61.5C 86.5873,65.3101 86.0873,68.9768 84.5,72.5C 85.5417,73.7911 86.7083,73.7911 88,72.5C 89.0736,73.6184 90.2402,74.6184 91.5,75.5C 86.8804,76.4933 82.2137,76.8266 77.5,76.5C 77.5,77.5 77.5,78.5 77.5,79.5C 72.1667,79.5 66.8333,79.5 61.5,79.5C 62.1143,75.8648 62.4476,72.1981 62.5,68.5C 64.256,69.5521 64.9227,71.2188 64.5,73.5C 68.2024,73.9812 71.8691,74.6479 75.5,75.5C 76.7051,74.4231 77.3718,73.0898 77.5,71.5C 77.5,71.1667 77.5,70.8333 77.5,70.5C 78.8571,69.4097 79.8571,68.0764 80.5,66.5C 82.3435,64.7211 83.0102,62.3878 82.5,59.5 Z"/></g>
<g><path style="opacity:0.02" fill="#fbedec" d="M 67.5,70.5 C 69.0332,71.4309 70.6998,72.0976 72.5,72.5C 74.1772,71.8131 75.8439,71.1465 77.5,70.5C 77.5,70.8333 77.5,71.1667 77.5,71.5C 76.0115,72.9385 74.1782,73.6052 72,73.5C 69.3743,73.9497 67.8743,72.9497 67.5,70.5 Z"/></g>
<g><path style="opacity:1" fill="#bb3129" d="M 214.5,65.5 C 214.5,66.5 214.5,67.5 214.5,68.5C 213.475,68.8966 213.308,69.5632 214,70.5C 216.833,73.3333 219.667,76.1667 222.5,79C 212.839,79.4998 203.172,79.6665 193.5,79.5C 193.5,79.1667 193.5,78.8333 193.5,78.5C 200.79,78.8577 206.123,75.8577 209.5,69.5C 211.317,68.233 212.984,66.8997 214.5,65.5 Z"/></g>
<g><path style="opacity:0.293" fill="#e6cbc9" d="M 214.5,68.5 C 217.997,72.1659 221.331,75.9992 224.5,80C 214.172,80.4998 203.839,80.6665 193.5,80.5C 193.167,80.5 192.833,80.5 192.5,80.5C 192.5,80.1667 192.5,79.8333 192.5,79.5C 192.833,79.5 193.167,79.5 193.5,79.5C 203.172,79.6665 212.839,79.4998 222.5,79C 219.667,76.1667 216.833,73.3333 214,70.5C 213.308,69.5632 213.475,68.8966 214.5,68.5 Z"/></g>
<g><path style="opacity:0.02" fill="#cfd1d1" d="M 53.5,66.5 C 53.5,72.1667 53.5,77.8333 53.5,83.5C 71.8364,83.6666 90.1697,83.4999 108.5,83C 91.6616,82.8315 74.995,82.3315 58.5,81.5C 73.1667,81.5 87.8333,81.5 102.5,81.5C 107.167,81.5 111.833,81.5 116.5,81.5C 117.833,81.5 119.167,81.5 120.5,81.5C 120.5,81.8333 120.5,82.1667 120.5,82.5C 120.5,83.5 120.5,84.5 120.5,85.5C 98.1642,85.6666 75.8308,85.5 53.5,85C 52.5399,81.27 52.2065,77.4367 52.5,73.5C 52.1984,70.9407 52.5318,68.6074 53.5,66.5 Z"/></g>
<g><path style="opacity:1" fill="#0a2531" d="M 120.5,85.5 C 124.462,85.9049 125.129,87.4049 122.5,90C 106.328,90.1686 90.3281,90.6686 74.5,91.5C 68.1667,91.5 61.8333,91.5 55.5,91.5C 55.0101,89.0516 55.8434,87.385 58,86.5C 69.7094,87.1466 81.3761,87.8133 93,88.5C 97.3488,86.9521 101.516,87.2854 105.5,89.5C 106.197,87.6155 107.197,87.2822 108.5,88.5C 112.146,86.2991 115.979,85.9658 120,87.5C 120.464,86.9056 120.631,86.2389 120.5,85.5 Z"/></g>
<g><path style="opacity:1" fill="#10262d" d="M 127.5,127.5 C 124.604,128.398 122.271,130.065 120.5,132.5C 120.5,130.5 120.5,128.5 120.5,126.5C 116.702,125.517 112.702,125.183 108.5,125.5C 109.641,124.661 110.974,123.994 112.5,123.5C 115.366,124.795 118.199,124.795 121,123.5C 123.302,128.913 124.468,128.58 124.5,122.5C 122.517,122.843 121.183,122.176 120.5,120.5C 120.5,118.5 120.5,116.5 120.5,114.5C 120.5,108.167 120.5,101.833 120.5,95.5C 120.5,94.5 120.5,93.5 120.5,92.5C 105.342,91.5038 90.0091,91.1705 74.5,91.5C 90.3281,90.6686 106.328,90.1686 122.5,90C 125.129,87.4049 124.462,85.9049 120.5,85.5C 120.5,84.5 120.5,83.5 120.5,82.5C 121.222,82.0825 121.722,81.4158 122,80.5C 122.169,74.1406 122.669,67.8072 123.5,61.5C 125.145,63.9252 126.311,66.5919 127,69.5C 127.5,88.8305 127.667,108.164 127.5,127.5 Z"/></g>
<g><path style="opacity:1" fill="#0d282e" d="M 52.5,73.5 C 52.2065,77.4367 52.5399,81.27 53.5,85C 75.8308,85.5 98.1642,85.6666 120.5,85.5C 120.631,86.2389 120.464,86.9056 120,87.5C 115.979,85.9658 112.146,86.2991 108.5,88.5C 107.197,87.2822 106.197,87.6155 105.5,89.5C 101.516,87.2854 97.3488,86.9521 93,88.5C 81.3761,87.8133 69.7094,87.1466 58,86.5C 55.8434,87.385 55.0101,89.0516 55.5,91.5C 55.5,91.8333 55.5,92.1667 55.5,92.5C 55.1667,92.5 54.8333,92.5 54.5,92.5C 52.5636,96.7147 51.8969,101.381 52.5,106.5C 50.8828,107.038 49.2161,107.371 47.5,107.5C 48.6229,104.625 49.4562,101.625 50,98.5C 50.2355,92.962 50.7355,87.462 51.5,82C 50.1325,79.2138 49.1325,76.3805 48.5,73.5C 49.3628,63.195 50.6962,63.195 52.5,73.5 Z"/></g>
<g><path style="opacity:1" fill="#30454f" d="M 45.5,68.5 C 46.2389,68.369 46.9056,68.5357 47.5,69C 46.0844,70.9151 46.4178,72.4151 48.5,73.5C 49.1325,76.3805 50.1325,79.2138 51.5,82C 50.7355,87.462 50.2355,92.962 50,98.5C 49.4562,101.625 48.6229,104.625 47.5,107.5C 46.5987,108.29 45.9321,109.29 45.5,110.5C 44.4417,96.8236 44.4417,82.8236 45.5,68.5 Z"/></g>
<g><path style="opacity:0.902" fill="#323c41" d="M 55.5,91.5 C 61.8333,91.5 68.1667,91.5 74.5,91.5C 90.0091,91.1705 105.342,91.5038 120.5,92.5C 109.167,92.5 97.8333,92.5 86.5,92.5C 85.8333,92.5 85.1667,92.5 84.5,92.5C 84.1667,92.5 83.8333,92.5 83.5,92.5C 83.1667,92.5 82.8333,92.5 82.5,92.5C 81.8333,92.5 81.1667,92.5 80.5,92.5C 80.1667,92.5 79.8333,92.5 79.5,92.5C 79.1667,92.5 78.8333,92.5 78.5,92.5C 77.8333,92.5 77.1667,92.5 76.5,92.5C 75.5,92.5 74.5,92.5 73.5,92.5C 67.1915,92.5756 61.1915,92.5756 55.5,92.5C 55.5,92.1667 55.5,91.8333 55.5,91.5 Z"/></g>
<g><path style="opacity:0.011" fill="#f5e9e9" d="M 73.5,92.5 C 74.5,92.5 75.5,92.5 76.5,92.5C 77.1667,93.8333 77.8333,93.8333 78.5,92.5C 78.8333,92.5 79.1667,92.5 79.5,92.5C 79.8333,93.8333 80.1667,93.8333 80.5,92.5C 81.1667,92.5 81.8333,92.5 82.5,92.5C 82.8333,93.8333 83.1667,93.8333 83.5,92.5C 83.8333,92.5 84.1667,92.5 84.5,92.5C 85.1667,93.8333 85.8333,93.8333 86.5,92.5C 97.8333,92.5 109.167,92.5 120.5,92.5C 120.5,93.5 120.5,94.5 120.5,95.5C 119.167,95.5 117.833,95.5 116.5,95.5C 114.167,95.5 111.833,95.5 109.5,95.5C 106.5,95.5 103.5,95.5 100.5,95.5C 87.5,95.5 74.5,95.5 61.5,95.5C 60.5,95.5 59.5,95.5 58.5,95.5C 58.5,101.833 58.5,108.167 58.5,114.5C 57.5088,107.687 57.1755,100.687 57.5,93.5C 63.0262,93.8214 68.3595,93.4881 73.5,92.5 Z"/></g>
<g><path style="opacity:1" fill="#e5483b" d="M 61.5,96.5 C 61.5,96.1667 61.5,95.8333 61.5,95.5C 74.5,95.5 87.5,95.5 100.5,95.5C 101.531,96.2485 102.698,96.9152 104,97.5C 104.195,102.418 104.695,107.251 105.5,112C 104.756,113.039 103.756,113.539 102.5,113.5C 101.833,113.5 101.167,113.5 100.5,113.5C 101.2,110.937 102.2,108.437 103.5,106C 102.987,102.106 101.654,99.2727 99.5,97.5C 94.1667,97.5 88.8333,97.5 83.5,97.5C 76.1912,96.7516 68.8578,96.4183 61.5,96.5 Z"/></g>
<g><path style="opacity:0.01" fill="#e4e6e7" d="M 185.5,96.5 C 179.926,98.4533 173.926,99.12 167.5,98.5C 173.074,96.5467 179.074,95.88 185.5,96.5 Z"/></g>
<g><path style="opacity:0.01" fill="#e3e6e6" d="M 192.5,80.5 C 192.833,80.5 193.167,80.5 193.5,80.5C 193.5,85.8333 193.5,91.1667 193.5,96.5C 201.507,96.3336 209.507,96.5003 217.5,97C 218.056,97.3826 218.389,97.8826 218.5,98.5C 209.833,98.5 201.167,98.5 192.5,98.5C 192.5,98.1667 192.5,97.8333 192.5,97.5C 192.5,91.8333 192.5,86.1667 192.5,80.5 Z"/></g>
<g><path style="opacity:1" fill="#fa463b" d="M 61.5,96.5 C 68.8578,96.4183 76.1912,96.7516 83.5,97.5C 86.0227,98.2537 88.6894,98.9204 91.5,99.5C 91.7499,102.124 93.0833,104.457 95.5,106.5C 90.8091,106.592 85.8091,106.592 80.5,106.5C 80.6399,104.876 79.9733,103.71 78.5,103C 81.8818,102.824 85.2152,102.324 88.5,101.5C 84.878,100.341 81.2113,100.175 77.5,101C 73.9765,102.096 70.3098,102.929 66.5,103.5C 67.8333,104.167 69.1667,104.833 70.5,105.5C 69.0921,106.243 67.7588,107.077 66.5,108C 67.4581,109.147 67.1247,110.147 65.5,111C 66.5,111.333 67.5,111.667 68.5,112C 78.2932,112.248 87.9599,111.414 97.5,109.5C 97.2294,111.43 96.2294,112.764 94.5,113.5C 82.8333,113.5 71.1667,113.5 59.5,113.5C 59.334,108.156 59.5006,102.823 60,97.5C 60.3826,96.944 60.8826,96.6107 61.5,96.5 Z"/></g>
<g><path style="opacity:1" fill="#b6312a" d="M 100.5,95.5 C 103.5,95.5 106.5,95.5 109.5,95.5C 111.155,102.071 110.821,108.405 108.5,114.5C 106.5,114.5 104.5,114.5 102.5,114.5C 102.5,114.167 102.5,113.833 102.5,113.5C 103.756,113.539 104.756,113.039 105.5,112C 104.695,107.251 104.195,102.418 104,97.5C 102.698,96.9152 101.531,96.2485 100.5,95.5 Z"/></g>
<g><path style="opacity:1" fill="#862120" d="M 109.5,95.5 C 111.833,95.5 114.167,95.5 116.5,95.5C 116.334,101.176 116.501,106.843 117,112.5C 117.995,113.066 118.828,113.733 119.5,114.5C 115.833,114.5 112.167,114.5 108.5,114.5C 110.821,108.405 111.155,102.071 109.5,95.5 Z"/></g>
<g><path style="opacity:1" fill="#f34738" d="M 83.5,97.5 C 88.8333,97.5 94.1667,97.5 99.5,97.5C 101.654,99.2727 102.987,102.106 103.5,106C 102.2,108.437 101.2,110.937 100.5,113.5C 98.5,113.5 96.5,113.5 94.5,113.5C 96.2294,112.764 97.2294,111.43 97.5,109.5C 98.9143,107.402 98.2476,106.402 95.5,106.5C 93.0833,104.457 91.7499,102.124 91.5,99.5C 88.6894,98.9204 86.0227,98.2537 83.5,97.5 Z"/></g>
<g><path style="opacity:0.988" fill="#0f2a33" d="M 185.5,55.5 C 185.833,55.5 186.167,55.5 186.5,55.5C 186.333,67.1714 186.5,78.8381 187,90.5C 188.406,91.6682 189.572,91.3348 190.5,89.5C 191.168,92.3056 191.834,94.9723 192.5,97.5C 192.5,97.8333 192.5,98.1667 192.5,98.5C 191.596,99.209 191.263,100.209 191.5,101.5C 195.151,102.91 198.817,103.577 202.5,103.5C 203.696,103.154 203.696,102.654 202.5,102C 205.093,101.463 207.593,100.63 210,99.5C 212.371,100.694 214.205,102.527 215.5,105C 215.333,105.5 215.167,106 215,106.5C 214.395,104.519 213.395,104.185 212,105.5C 211.333,110.167 211.333,114.833 212,119.5C 212.699,114.719 213.199,114.553 213.5,119C 212.553,121.616 212.219,124.116 212.5,126.5C 212.818,127.647 213.484,128.481 214.5,129C 212.987,131.916 213.32,134.582 215.5,137C 213.17,138.345 210.837,138.512 208.5,137.5C 208.863,136.817 209.196,136.15 209.5,135.5C 210.487,130.695 210.821,125.695 210.5,120.5C 210.5,119.833 210.5,119.167 210.5,118.5C 210.5,117.833 210.5,117.167 210.5,116.5C 210.002,113.326 210.002,109.993 210.5,106.5C 201.225,104.527 191.558,103.86 181.5,104.5C 180.983,99.4096 178.65,98.4096 174.5,101.5C 171.586,100.123 169.253,100.79 167.5,103.5C 167.5,101.833 167.5,100.167 167.5,98.5C 173.926,99.12 179.926,98.4533 185.5,96.5C 185.5,82.8333 185.5,69.1667 185.5,55.5 Z"/></g>
<g><path style="opacity:1" fill="#fd4336" d="M 95.5,106.5 C 98.2476,106.402 98.9143,107.402 97.5,109.5C 87.9599,111.414 78.2932,112.248 68.5,112C 67.5,111.667 66.5,111.333 65.5,111C 67.1247,110.147 67.4581,109.147 66.5,108C 67.7588,107.077 69.0921,106.243 70.5,105.5C 69.1667,104.833 67.8333,104.167 66.5,103.5C 70.3098,102.929 73.9765,102.096 77.5,101C 81.2113,100.175 84.878,100.341 88.5,101.5C 85.2152,102.324 81.8818,102.824 78.5,103C 79.9733,103.71 80.6399,104.876 80.5,106.5C 85.8091,106.592 90.8091,106.592 95.5,106.5 Z"/></g>
<g><path style="opacity:1" fill="#0b2933" d="M 181.5,104.5 C 179.167,104.5 176.833,104.5 174.5,104.5C 174.5,111.833 174.5,119.167 174.5,126.5C 172.023,128.416 171.023,131.083 171.5,134.5C 170.167,134.5 168.833,134.5 167.5,134.5C 167.5,134.167 167.5,133.833 167.5,133.5C 167.5,123.5 167.5,113.5 167.5,103.5C 169.253,100.79 171.586,100.123 174.5,101.5C 178.65,98.4096 180.983,99.4096 181.5,104.5 Z"/></g>
<g><path style="opacity:1" fill="#c03834" d="M 116.5,95.5 C 117.833,95.5 119.167,95.5 120.5,95.5C 120.5,101.833 120.5,108.167 120.5,114.5C 120.167,114.5 119.833,114.5 119.5,114.5C 118.828,113.733 117.995,113.066 117,112.5C 116.501,106.843 116.334,101.176 116.5,95.5 Z"/></g>
<g><path style="opacity:1" fill="#1c343e" d="M 52.5,106.5 C 52.1805,111.363 52.5139,116.03 53.5,120.5C 53.8333,120.5 54.1667,120.5 54.5,120.5C 55.2916,121.967 55.2916,123.3 54.5,124.5C 52.7597,122.789 50.7597,121.956 48.5,122C 49.0792,125.157 50.0792,128.157 51.5,131C 51.1918,132.459 50.5251,133.626 49.5,134.5C 48.2223,134.218 47.2223,133.551 46.5,132.5C 44.7216,125.331 44.3882,117.997 45.5,110.5C 45.9321,109.29 46.5987,108.29 47.5,107.5C 49.2161,107.371 50.8828,107.038 52.5,106.5 Z"/></g>
<g><path style="opacity:1" fill="#0f2930" d="M 192.5,98.5 C 201.167,98.5 209.833,98.5 218.5,98.5C 218.5,110.167 218.5,121.833 218.5,133.5C 218.5,134.833 219.167,135.5 220.5,135.5C 222.663,136.469 224.996,137.302 227.5,138C 227.167,138.333 226.833,138.667 226.5,139C 229.695,139.181 232.695,139.681 235.5,140.5C 212.5,140.5 189.5,140.5 166.5,140.5C 166.5,140.167 166.5,139.833 166.5,139.5C 170.5,139.5 174.5,139.5 178.5,139.5C 187.173,139.666 195.84,139.5 204.5,139C 201.475,138.639 198.475,138.139 195.5,137.5C 194.446,137.68 193.446,138.013 192.5,138.5C 189.081,136.564 185.581,136.231 182,137.5C 180.583,136.922 179.75,135.922 179.5,134.5C 189.473,135.366 199.473,135.699 209.5,135.5C 209.196,136.15 208.863,136.817 208.5,137.5C 210.837,138.512 213.17,138.345 215.5,137C 213.32,134.582 212.987,131.916 214.5,129C 213.484,128.481 212.818,127.647 212.5,126.5C 212.219,124.116 212.553,121.616 213.5,119C 213.199,114.553 212.699,114.719 212,119.5C 211.333,114.833 211.333,110.167 212,105.5C 213.395,104.185 214.395,104.519 215,106.5C 215.167,106 215.333,105.5 215.5,105C 214.205,102.527 212.371,100.694 210,99.5C 207.593,100.63 205.093,101.463 202.5,102C 203.696,102.654 203.696,103.154 202.5,103.5C 198.817,103.577 195.151,102.91 191.5,101.5C 191.263,100.209 191.596,99.209 192.5,98.5 Z"/></g>
<g><path style="opacity:0.502" fill="#959ea1" d="M 54.5,92.5 C 53.5301,101.082 53.1968,109.749 53.5,118.5C 53.5,119.167 53.5,119.833 53.5,120.5C 52.5139,116.03 52.1805,111.363 52.5,106.5C 51.8969,101.381 52.5636,96.7147 54.5,92.5 Z"/></g>
<g><path style="opacity:0.011" fill="#dde0e1" d="M 143.5,113.5 C 140.812,113.166 138.479,113.832 136.5,115.5C 137.128,112.045 139.128,110.878 142.5,112C 143.056,112.383 143.389,112.883 143.5,113.5 Z"/></g>
<g><path style="opacity:0.588" fill="#b6bdbf" d="M 159.5,115.5 C 157.521,113.832 155.188,113.166 152.5,113.5C 153.659,111.623 155.326,111.123 157.5,112C 158.823,112.816 159.489,113.983 159.5,115.5 Z"/></g>
<g><path style="opacity:0.889" fill="#d85951" d="M 61.5,95.5 C 61.5,95.8333 61.5,96.1667 61.5,96.5C 60.8826,96.6107 60.3826,96.944 60,97.5C 59.5006,102.823 59.334,108.156 59.5,113.5C 71.1667,113.5 82.8333,113.5 94.5,113.5C 96.5,113.5 98.5,113.5 100.5,113.5C 101.167,113.5 101.833,113.5 102.5,113.5C 102.5,113.833 102.5,114.167 102.5,114.5C 87.8333,114.5 73.1667,114.5 58.5,114.5C 58.5,108.167 58.5,101.833 58.5,95.5C 59.5,95.5 60.5,95.5 61.5,95.5 Z"/></g>
<g><path style="opacity:0.996" fill="#2a4045" d="M 143.5,113.5 C 146.568,117.676 145.401,120.343 140,121.5C 137.09,120.55 135.923,118.55 136.5,115.5C 138.479,113.832 140.812,113.166 143.5,113.5 Z"/></g>
<g><path style="opacity:0.188" fill="#e5e2e2" d="M 58.5,114.5 C 73.1667,114.5 87.8333,114.5 102.5,114.5C 104.5,114.5 106.5,114.5 108.5,114.5C 112.167,114.5 115.833,114.5 119.5,114.5C 119.833,114.5 120.167,114.5 120.5,114.5C 120.5,116.5 120.5,118.5 120.5,120.5C 118.833,120.5 117.167,120.5 115.5,120.5C 96.5,120.5 77.5,120.5 58.5,120.5C 57.1667,120.5 55.8333,120.5 54.5,120.5C 54.1667,120.5 53.8333,120.5 53.5,120.5C 53.5,119.833 53.5,119.167 53.5,118.5C 68.8478,118.833 84.1811,118.499 99.5,117.5C 100.376,116.749 101.376,116.249 102.5,116C 87.6609,115.831 72.9943,115.331 58.5,114.5 Z"/></g>
<g><path style="opacity:0.005" fill="#fdfdfd" d="M 210.5,116.5 C 210.5,117.167 210.5,117.833 210.5,118.5C 208.775,118.157 208.275,117.157 209,115.5C 209.383,116.056 209.883,116.389 210.5,116.5 Z"/></g>
<g><path style="opacity:0.03" fill="#e1e4e4" d="M 233.5,118.5 C 231.167,115.833 228.833,115.833 226.5,118.5C 226.559,116.278 227.725,115.278 230,115.5C 232.275,115.278 233.441,116.278 233.5,118.5 Z"/></g>
<g><path style="opacity:0.029" fill="#ebecec" d="M 247.5,116.5 C 245.142,116.253 243.142,116.919 241.5,118.5C 241.414,117.504 241.748,116.671 242.5,116C 244.387,115.22 246.054,115.387 247.5,116.5 Z"/></g>
<g><path style="opacity:1" fill="#294148" d="M 152.5,113.5 C 155.188,113.166 157.521,113.832 159.5,115.5C 160.299,118.83 158.799,120.83 155,121.5C 151.522,119.605 150.689,116.938 152.5,113.5 Z"/></g>
<g><path style="opacity:0.63" fill="#879396" d="M 180.5,111.5 C 183.5,111.5 186.5,111.5 189.5,111.5C 189.5,116.5 189.5,121.5 189.5,126.5C 186.5,126.5 183.5,126.5 180.5,126.5C 180.5,121.5 180.5,116.5 180.5,111.5 Z"/></g>
<g><path style="opacity:1" fill="#283f42" d="M 233.5,118.5 C 234.833,120.824 234.166,122.491 231.5,123.5C 229.784,123.371 228.117,123.038 226.5,122.5C 226.5,122.167 226.5,121.833 226.5,121.5C 226.5,120.5 226.5,119.5 226.5,118.5C 228.833,115.833 231.167,115.833 233.5,118.5 Z"/></g>
<g><path style="opacity:0.516" fill="#828e91" d="M 181.5,104.5 C 191.558,103.86 201.225,104.527 210.5,106.5C 198.914,105.522 187.247,105.189 175.5,105.5C 175.5,114.5 175.5,123.5 175.5,132.5C 175.5,133.167 175.5,133.833 175.5,134.5C 174.527,132.052 174.194,129.385 174.5,126.5C 174.5,119.167 174.5,111.833 174.5,104.5C 176.833,104.5 179.167,104.5 181.5,104.5 Z"/></g>
<g><path style="opacity:1" fill="#072931" d="M 181.5,113.5 C 183.833,113.5 186.167,113.5 188.5,113.5C 188.5,117.5 188.5,121.5 188.5,125.5C 186.167,125.5 183.833,125.5 181.5,125.5C 181.5,121.5 181.5,117.5 181.5,113.5 Z"/></g>
<g><path style="opacity:0.651" fill="#647376" d="M 195.5,112.5 C 198.713,112.19 201.713,112.523 204.5,113.5C 201.833,113.5 199.167,113.5 196.5,113.5C 196.5,117.5 196.5,121.5 196.5,125.5C 199.167,125.5 201.833,125.5 204.5,125.5C 204.5,125.833 204.5,126.167 204.5,126.5C 201.5,126.5 198.5,126.5 195.5,126.5C 195.285,121.653 195.285,116.986 195.5,112.5 Z"/></g>
<g><path style="opacity:1" fill="#062a31" d="M 204.5,113.5 C 204.5,117.5 204.5,121.5 204.5,125.5C 201.833,125.5 199.167,125.5 196.5,125.5C 196.5,121.5 196.5,117.5 196.5,113.5C 199.167,113.5 201.833,113.5 204.5,113.5 Z"/></g>
<g><path style="opacity:0.086" fill="#f5f6f6" d="M 226.5,118.5 C 226.5,119.5 226.5,120.5 226.5,121.5C 224.015,120.74 224.015,119.74 226.5,118.5 Z"/></g>
<g><path style="opacity:1" fill="#2f4a4b" d="M 247.5,116.5 C 248.947,117.134 249.613,118.301 249.5,120C 249.613,121.699 248.947,122.866 247.5,123.5C 245.435,123.483 243.435,123.15 241.5,122.5C 240.314,121.039 240.314,119.705 241.5,118.5C 243.142,116.919 245.142,116.253 247.5,116.5 Z"/></g>
<g><path style="opacity:1" fill="#09242f" d="M 115.5,120.5 C 117.167,120.5 118.833,120.5 120.5,120.5C 121.183,122.176 122.517,122.843 124.5,122.5C 124.468,128.58 123.302,128.913 121,123.5C 118.199,124.795 115.366,124.795 112.5,123.5C 110.974,123.994 109.641,124.661 108.5,125.5C 98.1667,125.5 87.8333,125.5 77.5,125.5C 77.4226,124.25 76.756,123.417 75.5,123C 75.8333,122.667 76.1667,122.333 76.5,122C 89.6731,121.831 102.673,121.331 115.5,120.5 Z"/></g>
<g><path style="opacity:1" fill="#092028" d="M 58.5,120.5 C 77.5,120.5 96.5,120.5 115.5,120.5C 102.673,121.331 89.6731,121.831 76.5,122C 76.1667,122.333 75.8333,122.667 75.5,123C 76.756,123.417 77.4226,124.25 77.5,125.5C 71.127,125.753 64.7937,125.419 58.5,124.5C 57.8333,124.167 57.1667,123.833 56.5,123.5C 57.6119,122.735 58.2786,121.735 58.5,120.5 Z"/></g>
<g><path style="opacity:0.182" fill="#c7cece" d="M 226.5,122.5 C 228.117,123.038 229.784,123.371 231.5,123.5C 229.545,124.93 227.879,124.597 226.5,122.5 Z"/></g>
<g><path style="opacity:0.106" fill="#d5d9da" d="M 241.5,122.5 C 243.435,123.15 245.435,123.483 247.5,123.5C 246.903,124.139 246.07,124.472 245,124.5C 243.301,124.613 242.134,123.947 241.5,122.5 Z"/></g>
<g><path style="opacity:0.035" fill="#f9f0ef" d="M 57.5,127.5 C 58.1667,127.5 58.8333,127.5 59.5,127.5C 59.5,127.833 59.5,128.167 59.5,128.5C 58.596,129.209 58.2627,130.209 58.5,131.5C 57.5655,130.432 57.2322,129.099 57.5,127.5 Z"/></g>
<g><path style="opacity:1" fill="#eb5446" d="M 59.5,128.5 C 59.5,128.167 59.5,127.833 59.5,127.5C 74.5,127.5 89.5,127.5 104.5,127.5C 104.5,127.833 104.5,128.167 104.5,128.5C 103.5,129.167 102.5,129.833 101.5,130.5C 99.7354,129.539 97.7354,129.205 95.5,129.5C 84.8281,129.333 74.1615,129.5 63.5,130C 64.1667,130.667 64.8333,131.333 65.5,132C 64.6198,133.356 64.2865,134.856 64.5,136.5C 62.3199,134.137 60.6532,131.47 59.5,128.5 Z"/></g>
<g><path style="opacity:0.965" fill="#ca5d5a" d="M 57.5,127.5 C 57.2322,129.099 57.5655,130.432 58.5,131.5C 58.5,132.167 58.5,132.833 58.5,133.5C 57.9033,133.735 57.5699,134.235 57.5,135C 58.3195,136.8 58.9862,138.634 59.5,140.5C 56.7989,137.765 55.1322,134.431 54.5,130.5C 54.5,129.5 54.5,128.5 54.5,127.5C 55.5,127.5 56.5,127.5 57.5,127.5 Z"/></g>
<g><path style="opacity:1" fill="#fb4639" d="M 95.5,129.5 C 96.0283,130.847 96.195,132.181 96,133.5C 91.8002,135.04 88.1336,137.374 85,140.5C 80.841,139.202 76.6744,139.202 72.5,140.5C 69.9579,139.197 67.2912,138.197 64.5,137.5C 64.5,137.167 64.5,136.833 64.5,136.5C 64.2865,134.856 64.6198,133.356 65.5,132C 64.8333,131.333 64.1667,130.667 63.5,130C 74.1615,129.5 84.8281,129.333 95.5,129.5 Z"/></g>
<g><path style="opacity:0.008" fill="#dee1e2" d="M 39.5,134.5 C 36.8333,131.833 34.1667,131.833 31.5,134.5C 32.1284,131.045 34.1284,129.878 37.5,131C 38.8228,131.816 39.4894,132.983 39.5,134.5 Z"/></g>
<g><path style="opacity:0.033" fill="#dee0e1" d="M 167.5,98.5 C 167.5,100.167 167.5,101.833 167.5,103.5C 167.5,113.5 167.5,123.5 167.5,133.5C 156.772,132.634 146.105,131.301 135.5,129.5C 135.783,128.711 136.283,128.044 137,127.5C 146.637,129.353 156.304,131.02 166,132.5C 166.169,120.993 166.669,109.659 167.5,98.5 Z"/></g>
<g><path style="opacity:0.046" fill="#eaeced" d="M 195.5,112.5 C 198.625,111.521 201.958,111.187 205.5,111.5C 205.334,115.514 205.501,119.514 206,123.5C 206.333,120.833 206.667,118.167 207,115.5C 207.206,117.936 208.373,119.602 210.5,120.5C 210.821,125.695 210.487,130.695 209.5,135.5C 199.473,135.699 189.473,135.366 179.5,134.5C 178.167,134.5 176.833,134.5 175.5,134.5C 175.5,133.833 175.5,133.167 175.5,132.5C 185.757,133.641 196.09,133.808 206.5,133C 206.833,132 207.167,131 207.5,130C 206.773,128.601 206.273,127.101 206,125.5C 205.617,126.056 205.117,126.389 204.5,126.5C 204.5,126.167 204.5,125.833 204.5,125.5C 204.5,121.5 204.5,117.5 204.5,113.5C 201.713,112.523 198.713,112.19 195.5,112.5 Z"/></g>
<g><path style="opacity:0.012" fill="#c4cacb" d="M 23.5,138.5 C 24.5081,133.333 22.6748,131.666 18,133.5C 17.5065,135.134 17.3398,136.801 17.5,138.5C 16.3775,136.712 16.2109,134.712 17,132.5C 19.3333,129.833 21.6667,129.833 24,132.5C 24.7891,134.712 24.6225,136.712 23.5,138.5 Z"/></g>
<g><path style="opacity:1" fill="#223b41" d="M 23.5,138.5 C 21.5,141.167 19.5,141.167 17.5,138.5C 17.3398,136.801 17.5065,135.134 18,133.5C 22.6748,131.666 24.5081,133.333 23.5,138.5 Z"/></g>
<g><path style="opacity:1" fill="#293f43" d="M 39.5,134.5 C 39.336,140.488 36.836,141.821 32,138.5C 31.51,137.207 31.3433,135.873 31.5,134.5C 34.1667,131.833 36.8333,131.833 39.5,134.5 Z"/></g>
<g><path style="opacity:1" fill="#7a2421" d="M 120.5,126.5 C 120.5,128.5 120.5,130.5 120.5,132.5C 120.167,133.5 119.5,134.167 118.5,134.5C 119.219,132.236 119.552,129.903 119.5,127.5C 117.833,127.5 116.167,127.5 114.5,127.5C 113.956,131.673 112.79,135.673 111,139.5C 108.176,143.248 105.009,146.748 101.5,150C 99.7525,150.352 98.0858,150.852 96.5,151.5C 78.263,152.185 78.263,150.352 96.5,146C 98.4925,143.253 100.993,141.086 104,139.5C 104.743,135.921 106.243,132.754 108.5,130C 107.968,127.98 106.635,127.147 104.5,127.5C 89.5,127.5 74.5,127.5 59.5,127.5C 58.8333,127.5 58.1667,127.5 57.5,127.5C 56.5,127.5 55.5,127.5 54.5,127.5C 54.5,128.5 54.5,129.5 54.5,130.5C 53.5655,129.432 53.2322,128.099 53.5,126.5C 75.8333,126.5 98.1667,126.5 120.5,126.5 Z"/></g>
<g><path style="opacity:0.015" fill="#ccd2d2" d="M 218.5,133.5 C 228.5,133.5 238.5,133.5 248.5,133.5C 248.81,136.713 248.477,139.713 247.5,142.5C 247.5,140.167 247.5,137.833 247.5,135.5C 238.5,135.5 229.5,135.5 220.5,135.5C 219.167,135.5 218.5,134.833 218.5,133.5 Z"/></g>
<g><path style="opacity:0.996" fill="#69777e" d="M 46.5,132.5 C 47.2223,133.551 48.2223,134.218 49.5,134.5C 48.7659,135.708 48.4326,137.041 48.5,138.5C 47.2616,136.786 46.595,134.786 46.5,132.5 Z"/></g>
<g><path style="opacity:1" fill="#162e35" d="M 135.5,129.5 C 146.105,131.301 156.772,132.634 167.5,133.5C 167.5,133.833 167.5,134.167 167.5,134.5C 164.274,136.743 160.774,137.076 157,135.5C 155.775,135.862 154.609,136.362 153.5,137C 161.935,138.074 170.269,138.907 178.5,139.5C 174.5,139.5 170.5,139.5 166.5,139.5C 160.484,139.407 154.484,139.074 148.5,138.5C 147.833,138.5 147.167,138.5 146.5,138.5C 145.549,139.919 145.216,141.585 145.5,143.5C 145.302,149.262 143.302,149.929 139.5,145.5C 138.24,143.647 138.24,141.814 139.5,140C 138.552,139.517 137.552,139.351 136.5,139.5C 135.631,137.016 134.964,134.349 134.5,131.5C 134.543,130.584 134.876,129.917 135.5,129.5 Z"/></g>
<g><path style="opacity:1" fill="#092832" d="M 174.5,126.5 C 174.194,129.385 174.527,132.052 175.5,134.5C 176.833,134.5 178.167,134.5 179.5,134.5C 179.75,135.922 180.583,136.922 182,137.5C 185.581,136.231 189.081,136.564 192.5,138.5C 193.446,138.013 194.446,137.68 195.5,137.5C 198.475,138.139 201.475,138.639 204.5,139C 195.84,139.5 187.173,139.666 178.5,139.5C 170.269,138.907 161.935,138.074 153.5,137C 154.609,136.362 155.775,135.862 157,135.5C 160.774,137.076 164.274,136.743 167.5,134.5C 168.833,134.5 170.167,134.5 171.5,134.5C 171.023,131.083 172.023,128.416 174.5,126.5 Z"/></g>
<g><path style="opacity:1" fill="#0d2c31" d="M 220.5,135.5 C 229.5,135.5 238.5,135.5 247.5,135.5C 247.5,137.833 247.5,140.167 247.5,142.5C 247.58,145.781 246.913,148.781 245.5,151.5C 243.115,150.708 241.115,149.374 239.5,147.5C 239.5,146.833 239.5,146.167 239.5,145.5C 240.451,144.081 240.784,142.415 240.5,140.5C 238.833,140.5 237.167,140.5 235.5,140.5C 232.695,139.681 229.695,139.181 226.5,139C 226.833,138.667 227.167,138.333 227.5,138C 224.996,137.302 222.663,136.469 220.5,135.5 Z"/></g>
<g><path style="opacity:0.176" fill="#fad4cf" d="M 59.5,128.5 C 60.6532,131.47 62.3199,134.137 64.5,136.5C 64.5,136.833 64.5,137.167 64.5,137.5C 64.4827,139.028 63.816,139.528 62.5,139C 61.035,137.226 59.7017,135.392 58.5,133.5C 58.5,132.833 58.5,132.167 58.5,131.5C 59.404,130.791 59.7373,129.791 59.5,128.5 Z"/></g>
<g><path style="opacity:1" fill="#182327" d="M 54.5,120.5 C 55.8333,120.5 57.1667,120.5 58.5,120.5C 58.2786,121.735 57.6119,122.735 56.5,123.5C 57.1667,123.833 57.8333,124.167 58.5,124.5C 64.7937,125.419 71.127,125.753 77.5,125.5C 87.8333,125.5 98.1667,125.5 108.5,125.5C 112.702,125.183 116.702,125.517 120.5,126.5C 98.1667,126.5 75.8333,126.5 53.5,126.5C 53.2322,128.099 53.5655,129.432 54.5,130.5C 55.1322,134.431 56.7989,137.765 59.5,140.5C 62.8607,145.861 67.1941,150.194 72.5,153.5C 69.7375,153.204 67.2375,152.204 65,150.5C 62.1901,153.197 61.3567,152.697 62.5,149C 61.1667,148.333 59.8333,147.667 58.5,147C 59.5536,145.612 59.7203,144.112 59,142.5C 55.6209,140.028 52.1209,138.694 48.5,138.5C 48.4326,137.041 48.7659,135.708 49.5,134.5C 50.5251,133.626 51.1918,132.459 51.5,131C 50.0792,128.157 49.0792,125.157 48.5,122C 50.7597,121.956 52.7597,122.789 54.5,124.5C 55.2916,123.3 55.2916,121.967 54.5,120.5 Z"/></g>
<g><path style="opacity:1" fill="#a32e27" d="M 104.5,128.5 C 104.5,128.167 104.5,127.833 104.5,127.5C 106.635,127.147 107.968,127.98 108.5,130C 106.243,132.754 104.743,135.921 104,139.5C 100.993,141.086 98.4925,143.253 96.5,146C 78.263,150.352 78.263,152.185 96.5,151.5C 94.9724,152.309 93.3057,152.976 91.5,153.5C 87.1578,153.261 82.8244,152.927 78.5,152.5C 78.4208,151.07 78.7542,149.736 79.5,148.5C 84.3838,146.85 89.3838,145.516 94.5,144.5C 95.0654,142.491 96.0654,140.824 97.5,139.5C 99.0443,139.297 100.378,138.63 101.5,137.5C 102.573,134.26 104.573,131.76 107.5,130C 106.473,129.487 105.473,128.987 104.5,128.5 Z"/></g>
<g><path style="opacity:1" fill="#ef4537" d="M 95.5,129.5 C 97.7354,129.205 99.7354,129.539 101.5,130.5C 100.432,133.075 98.7655,135.242 96.5,137C 92.0303,137.417 88.0303,139.417 84.5,143C 81.7983,143.607 79.1316,143.44 76.5,142.5C 75.1667,143.167 73.8333,143.833 72.5,144.5C 70.6663,143.246 68.6663,142.579 66.5,142.5C 66.7373,143.791 66.404,144.791 65.5,145.5C 64.1497,144.517 63.1497,143.184 62.5,141.5C 61.5832,140.873 60.5832,140.539 59.5,140.5C 58.9862,138.634 58.3195,136.8 57.5,135C 57.5699,134.235 57.9033,133.735 58.5,133.5C 59.7017,135.392 61.035,137.226 62.5,139C 63.816,139.528 64.4827,139.028 64.5,137.5C 67.2912,138.197 69.9579,139.197 72.5,140.5C 76.6744,139.202 80.841,139.202 85,140.5C 88.1336,137.374 91.8002,135.04 96,133.5C 96.195,132.181 96.0283,130.847 95.5,129.5 Z"/></g>
<g><path style="opacity:1" fill="#d83b31" d="M 104.5,128.5 C 105.473,128.987 106.473,129.487 107.5,130C 104.573,131.76 102.573,134.26 101.5,137.5C 100.378,138.63 99.0443,139.297 97.5,139.5C 92.7411,140.21 88.4078,142.043 84.5,145C 79.0973,144.472 73.9306,145.639 69,148.5C 67.3576,148.022 66.1909,147.022 65.5,145.5C 66.404,144.791 66.7373,143.791 66.5,142.5C 68.6663,142.579 70.6663,143.246 72.5,144.5C 73.8333,143.833 75.1667,143.167 76.5,142.5C 79.1316,143.44 81.7983,143.607 84.5,143C 88.0303,139.417 92.0303,137.417 96.5,137C 98.7655,135.242 100.432,133.075 101.5,130.5C 102.5,129.833 103.5,129.167 104.5,128.5 Z"/></g>
<g><path style="opacity:1" fill="#de8d8c" d="M 146.5,138.5 C 147.167,138.5 147.833,138.5 148.5,138.5C 150.167,139.167 151.833,139.833 153.5,140.5C 152.167,140.5 150.833,140.5 149.5,140.5C 149.5,141.833 149.5,143.167 149.5,144.5C 147.992,142.819 146.992,140.819 146.5,138.5 Z"/></g>
<g><path style="opacity:1" fill="#4e2425" d="M 148.5,138.5 C 154.484,139.074 160.484,139.407 166.5,139.5C 166.5,139.833 166.5,140.167 166.5,140.5C 162.167,140.5 157.833,140.5 153.5,140.5C 151.833,139.833 150.167,139.167 148.5,138.5 Z"/></g>
<g><path style="opacity:1" fill="#311c20" d="M 166.5,141.5 C 166.5,141.167 166.5,140.833 166.5,140.5C 189.5,140.5 212.5,140.5 235.5,140.5C 237.167,140.5 238.833,140.5 240.5,140.5C 240.784,142.415 240.451,144.081 239.5,145.5C 239.5,144.167 239.5,142.833 239.5,141.5C 222.5,141.5 205.5,141.5 188.5,141.5C 183.167,141.5 177.833,141.5 172.5,141.5C 170.5,141.5 168.5,141.5 166.5,141.5 Z"/></g>
<g><path style="opacity:1" fill="#703334" d="M 188.5,141.5 C 205.5,141.5 222.5,141.5 239.5,141.5C 239.5,142.833 239.5,144.167 239.5,145.5C 239.5,146.167 239.5,146.833 239.5,147.5C 239.167,147.5 238.833,147.5 238.5,147.5C 238.5,145.833 238.5,144.167 238.5,142.5C 235.5,142.5 232.5,142.5 229.5,142.5C 215.656,142.829 201.99,142.496 188.5,141.5 Z"/></g>
<g><path style="opacity:1" fill="#e0584b" d="M 172.5,141.5 C 177.833,141.5 183.167,141.5 188.5,141.5C 201.99,142.496 215.656,142.829 229.5,142.5C 229.5,142.833 229.5,143.167 229.5,143.5C 228.833,143.5 228.167,143.5 227.5,143.5C 224.5,143.5 221.5,143.5 218.5,143.5C 205.829,143.667 193.162,143.5 180.5,143C 177.635,142.817 174.969,142.317 172.5,141.5 Z"/></g>
<g><path style="opacity:1" fill="#1a3137" d="M 127.5,127.5 C 127.357,135.278 124.691,141.945 119.5,147.5C 118.833,147.5 118.5,147.833 118.5,148.5C 115.789,152.212 112.456,155.212 108.5,157.5C 107.833,157.5 107.5,157.833 107.5,158.5C 106.486,159.674 105.153,160.34 103.5,160.5C 103.167,160.5 102.833,160.5 102.5,160.5C 101.766,159.292 101.433,157.959 101.5,156.5C 100.5,156.5 99.5,156.5 98.5,156.5C 100.781,155.661 103.115,154.661 105.5,153.5C 106.386,152.675 106.719,151.675 106.5,150.5C 110.326,146.198 114.159,141.865 118,137.5C 118.483,136.552 118.649,135.552 118.5,134.5C 119.5,134.167 120.167,133.5 120.5,132.5C 122.271,130.065 124.604,128.398 127.5,127.5 Z"/></g>
<g><path style="opacity:1" fill="#fb473a" d="M 166.5,141.5 C 168.5,141.5 170.5,141.5 172.5,141.5C 174.969,142.317 177.635,142.817 180.5,143C 193.162,143.5 205.829,143.667 218.5,143.5C 217.951,145.687 216.785,146.354 215,145.5C 212.899,146.924 210.733,148.258 208.5,149.5C 207.914,149.291 207.414,148.957 207,148.5C 206.682,150.061 205.849,151.228 204.5,152C 204.957,152.414 205.291,152.914 205.5,153.5C 203.577,154.308 201.577,154.808 199.5,155C 198.619,155.708 197.953,156.542 197.5,157.5C 196.167,157.5 194.833,157.5 193.5,157.5C 195.681,154.991 198.347,153.157 201.5,152C 199.899,151.727 198.399,151.227 197,150.5C 195.6,151.116 194.1,151.449 192.5,151.5C 183.959,151.078 175.792,150.078 168,148.5C 167.82,150.488 167.986,152.488 168.5,154.5C 166.801,154.34 165.134,154.506 163.5,155C 164.756,155.417 165.423,156.25 165.5,157.5C 162.728,157.78 160.228,157.113 158,155.5C 157.42,152.453 157.753,152.119 159,154.5C 159.5,153.333 160.333,152.5 161.5,152C 159.428,149.852 157.594,150.018 156,152.5C 155.318,150.062 155.818,147.895 157.5,146C 156.852,144.56 156.519,143.06 156.5,141.5C 159.833,141.5 163.167,141.5 166.5,141.5 Z"/></g>
<g><path style="opacity:1" fill="#c6423a" d="M 118.5,134.5 C 118.649,135.552 118.483,136.552 118,137.5C 114.159,141.865 110.326,146.198 106.5,150.5C 103.167,151.833 99.8333,153.167 96.5,154.5C 94.5853,154.784 92.9187,154.451 91.5,153.5C 93.3057,152.976 94.9724,152.309 96.5,151.5C 98.0858,150.852 99.7525,150.352 101.5,150C 105.009,146.748 108.176,143.248 111,139.5C 112.79,135.673 113.956,131.673 114.5,127.5C 116.167,127.5 117.833,127.5 119.5,127.5C 119.552,129.903 119.219,132.236 118.5,134.5 Z"/></g>
<g><path style="opacity:0.017" fill="#f7f8f8" d="M 54.5,147.5 C 55.1667,147.5 55.5,147.833 55.5,148.5C 41.295,149.199 26.9617,149.866 12.5,150.5C 12.6107,149.883 12.944,149.383 13.5,149C 27.3395,148.831 41.0061,148.331 54.5,147.5 Z"/></g>
<g><path style="opacity:0.015" fill="#f4f5f5" d="M 119.5,147.5 C 124.167,148.167 128.833,148.833 133.5,149.5C 128.305,149.821 123.305,149.487 118.5,148.5C 118.5,147.833 118.833,147.5 119.5,147.5 Z"/></g>
<g><path style="opacity:0.008" fill="#f7f3f3" d="M 149.5,144.5 C 151.008,146.181 152.008,148.181 152.5,150.5C 151.833,151.167 151.167,151.833 150.5,152.5C 150.167,151.167 149.833,151.167 149.5,152.5C 148.662,152.158 148.328,151.492 148.5,150.5C 149.833,149.833 149.833,149.167 148.5,148.5C 148.833,147.167 149.167,145.833 149.5,144.5 Z"/></g>
<g><path style="opacity:1" fill="#b2302d" d="M 229.5,143.5 C 229.5,143.167 229.5,142.833 229.5,142.5C 232.5,142.5 235.5,142.5 238.5,142.5C 238.5,144.167 238.5,145.833 238.5,147.5C 238.191,151.498 236.857,155.165 234.5,158.5C 233.5,158.5 232.5,158.5 231.5,158.5C 231.986,156.193 231.986,154.027 231.5,152C 234.3,149.581 234.133,147.414 231,145.5C 229.067,147.558 227.233,149.725 225.5,152C 223.866,152.494 222.199,152.66 220.5,152.5C 221.3,150.318 222.8,148.651 225,147.5C 225.333,147.833 225.667,148.167 226,148.5C 227.378,145.892 229.545,144.392 232.5,144C 231.552,143.517 230.552,143.351 229.5,143.5 Z"/></g>
<g><path style="opacity:1" fill="#e4493e" d="M 153.5,140.5 C 157.833,140.5 162.167,140.5 166.5,140.5C 166.5,140.833 166.5,141.167 166.5,141.5C 163.167,141.5 159.833,141.5 156.5,141.5C 156.519,143.06 156.852,144.56 157.5,146C 155.818,147.895 155.318,150.062 156,152.5C 157.594,150.018 159.428,149.852 161.5,152C 160.333,152.5 159.5,153.333 159,154.5C 157.753,152.119 157.42,152.453 158,155.5C 160.228,157.113 162.728,157.78 165.5,157.5C 174.833,157.5 184.167,157.5 193.5,157.5C 194.833,157.5 196.167,157.5 197.5,157.5C 199.492,157.672 201.158,157.005 202.5,155.5C 205.943,156.066 208.943,154.9 211.5,152C 214.146,151.503 216.813,151.336 219.5,151.5C 219.281,150.325 219.614,149.325 220.5,148.5C 222.8,146.637 225.133,144.97 227.5,143.5C 228.167,143.5 228.833,143.5 229.5,143.5C 230.552,143.351 231.552,143.517 232.5,144C 229.545,144.392 227.378,145.892 226,148.5C 225.667,148.167 225.333,147.833 225,147.5C 222.8,148.651 221.3,150.318 220.5,152.5C 219.432,153.434 218.099,153.768 216.5,153.5C 216.719,154.675 216.386,155.675 215.5,156.5C 213.018,157.067 210.684,157.734 208.5,158.5C 191.833,158.5 175.167,158.5 158.5,158.5C 157.833,157.167 156.833,156.167 155.5,155.5C 155.573,153.973 154.906,152.973 153.5,152.5C 152.662,152.158 152.328,151.492 152.5,150.5C 152.008,148.181 151.008,146.181 149.5,144.5C 149.5,143.167 149.5,141.833 149.5,140.5C 150.833,140.5 152.167,140.5 153.5,140.5 Z"/></g>
<g><path style="opacity:1" fill="#fd4336" d="M 193.5,157.5 C 184.167,157.5 174.833,157.5 165.5,157.5C 165.423,156.25 164.756,155.417 163.5,155C 165.134,154.506 166.801,154.34 168.5,154.5C 167.986,152.488 167.82,150.488 168,148.5C 175.792,150.078 183.959,151.078 192.5,151.5C 194.1,151.449 195.6,151.116 197,150.5C 198.399,151.227 199.899,151.727 201.5,152C 198.347,153.157 195.681,154.991 193.5,157.5 Z"/></g>
<g><path style="opacity:1" fill="#e94133" d="M 218.5,143.5 C 221.5,143.5 224.5,143.5 227.5,143.5C 225.133,144.97 222.8,146.637 220.5,148.5C 219.614,149.325 219.281,150.325 219.5,151.5C 216.813,151.336 214.146,151.503 211.5,152C 208.943,154.9 205.943,156.066 202.5,155.5C 201.158,157.005 199.492,157.672 197.5,157.5C 197.953,156.542 198.619,155.708 199.5,155C 201.577,154.808 203.577,154.308 205.5,153.5C 205.291,152.914 204.957,152.414 204.5,152C 205.849,151.228 206.682,150.061 207,148.5C 207.414,148.957 207.914,149.291 208.5,149.5C 210.733,148.258 212.899,146.924 215,145.5C 216.785,146.354 217.951,145.687 218.5,143.5 Z"/></g>
<g><path style="opacity:1" fill="#ca433b" d="M 97.5,139.5 C 96.0654,140.824 95.0654,142.491 94.5,144.5C 89.3838,145.516 84.3838,146.85 79.5,148.5C 78.7542,149.736 78.4208,151.07 78.5,152.5C 82.8244,152.927 87.1578,153.261 91.5,153.5C 92.9187,154.451 94.5853,154.784 96.5,154.5C 96.1583,155.338 95.4916,155.672 94.5,155.5C 88.7969,155.625 83.1302,155.292 77.5,154.5C 75.7085,154.634 74.0418,154.301 72.5,153.5C 67.1941,150.194 62.8607,145.861 59.5,140.5C 60.5832,140.539 61.5832,140.873 62.5,141.5C 63.1497,143.184 64.1497,144.517 65.5,145.5C 66.1909,147.022 67.3576,148.022 69,148.5C 73.9306,145.639 79.0973,144.472 84.5,145C 88.4078,142.043 92.7411,140.21 97.5,139.5 Z"/></g>
<g><path style="opacity:1" fill="#133038" d="M 48.5,138.5 C 52.1209,138.694 55.6209,140.028 59,142.5C 59.7203,144.112 59.5536,145.612 58.5,147C 59.8333,147.667 61.1667,148.333 62.5,149C 61.3567,152.697 62.1901,153.197 65,150.5C 67.2375,152.204 69.7375,153.204 72.5,153.5C 72.67,154.822 72.3366,155.989 71.5,157C 72.5,157.333 73.5,157.667 74.5,158C 73.4019,158.77 73.4019,159.603 74.5,160.5C 73.5,160.5 72.5,160.5 71.5,160.5C 71.1667,160.5 70.8333,160.5 70.5,160.5C 68.847,160.34 67.5137,159.674 66.5,158.5C 66.5,157.833 66.1667,157.5 65.5,157.5C 62.271,155.058 59.271,152.392 56.5,149.5C 56.5,148.833 56.1667,148.5 55.5,148.5C 55.5,147.833 55.1667,147.5 54.5,147.5C 51.7589,145.025 49.7589,142.025 48.5,138.5 Z"/></g>
<g><path style="opacity:0.004" fill="#fefffe" d="M 246.5,152.5 C 247.525,152.897 247.692,153.563 247,154.5C 246.536,153.906 246.369,153.239 246.5,152.5 Z"/></g>
<g><path style="opacity:1" fill="#85c0c6" d="M 55.5,148.5 C 56.1667,148.5 56.5,148.833 56.5,149.5C 52.3656,150.485 48.0323,150.818 43.5,150.5C 34.5,150.5 25.5,150.5 16.5,150.5C 16.7711,152.821 16.1045,154.821 14.5,156.5C 19.1196,157.493 23.7863,157.827 28.5,157.5C 40.8333,157.5 53.1667,157.5 65.5,157.5C 66.1667,157.5 66.5,157.833 66.5,158.5C 48.8302,158.667 31.1635,158.5 13.5,158C 11.3542,155.643 11.0209,153.143 12.5,150.5C 26.9617,149.866 41.295,149.199 55.5,148.5 Z"/></g>
<g><path style="opacity:1" fill="#2da8b1" d="M 43.5,150.5 C 43.5,152.5 43.5,154.5 43.5,156.5C 38.3054,156.179 33.3054,156.513 28.5,157.5C 23.7863,157.827 19.1196,157.493 14.5,156.5C 16.1045,154.821 16.7711,152.821 16.5,150.5C 25.5,150.5 34.5,150.5 43.5,150.5 Z"/></g>
<g><path style="opacity:0.008" fill="#f8f2f2" d="M 153.5,152.5 C 154.906,152.973 155.573,153.973 155.5,155.5C 156.833,156.167 157.833,157.167 158.5,158.5C 157.167,158.5 155.833,158.5 154.5,158.5C 154.167,157.167 153.833,157.167 153.5,158.5C 152.094,158.027 151.427,157.027 151.5,155.5C 152.401,154.71 153.068,153.71 153.5,152.5 Z"/></g>
<g><path style="opacity:1" fill="#902623" d="M 231.5,158.5 C 223.833,158.5 216.167,158.5 208.5,158.5C 210.684,157.734 213.018,157.067 215.5,156.5C 216.386,155.675 216.719,154.675 216.5,153.5C 218.099,153.768 219.432,153.434 220.5,152.5C 222.199,152.66 223.866,152.494 225.5,152C 227.233,149.725 229.067,147.558 231,145.5C 234.133,147.414 234.3,149.581 231.5,152C 231.986,154.027 231.986,156.193 231.5,158.5 Z"/></g>
<g><path style="opacity:1" fill="#28a5ad" d="M 56.5,149.5 C 59.271,152.392 62.271,155.058 65.5,157.5C 53.1667,157.5 40.8333,157.5 28.5,157.5C 33.3054,156.513 38.3054,156.179 43.5,156.5C 43.5,154.5 43.5,152.5 43.5,150.5C 48.0323,150.818 52.3656,150.485 56.5,149.5 Z"/></g>
<g><path style="opacity:1" fill="#3ea7ad" d="M 118.5,148.5 C 123.305,149.487 128.305,149.821 133.5,149.5C 135.008,151.181 136.008,153.181 136.5,155.5C 127.56,157.472 118.227,158.139 108.5,157.5C 112.456,155.212 115.789,152.212 118.5,148.5 Z"/></g>
<g><path style="opacity:0.086" fill="#dfe0e0" d="M 149.5,152.5 C 149.833,152.5 150.167,152.5 150.5,152.5C 151.11,153.391 151.443,154.391 151.5,155.5C 150.094,155.027 149.427,154.027 149.5,152.5 Z"/></g>
<g><path style="opacity:0.965" fill="#5eaeb1" d="M 254.5,157.5 C 252.219,157.923 250.552,157.256 249.5,155.5C 249.995,153.518 250.495,151.518 251,149.5C 254.971,147.612 257.137,148.946 257.5,153.5C 256.965,155.261 255.965,156.594 254.5,157.5 Z"/></g>
<g><path style="opacity:1" fill="#182223" d="M 106.5,150.5 C 106.719,151.675 106.386,152.675 105.5,153.5C 103.115,154.661 100.781,155.661 98.5,156.5C 95.7815,157.941 92.9482,159.274 90,160.5C 88.1348,160.294 86.4681,159.628 85,158.5C 83.7202,158.613 82.8869,159.28 82.5,160.5C 86.6475,161.167 90.6475,161.834 94.5,162.5C 94.1667,162.5 93.8333,162.5 93.5,162.5C 88.5,162.5 83.5,162.5 78.5,162.5C 78.5394,161.417 78.8728,160.417 79.5,159.5C 79,159.167 78.5,158.833 78,158.5C 76.9231,159.429 75.7564,160.096 74.5,160.5C 73.4019,159.603 73.4019,158.77 74.5,158C 73.5,157.667 72.5,157.333 71.5,157C 72.3366,155.989 72.67,154.822 72.5,153.5C 74.0418,154.301 75.7085,154.634 77.5,154.5C 80.5256,156.019 83.8589,156.685 87.5,156.5C 90.0254,156.497 92.3587,156.163 94.5,155.5C 95.4916,155.672 96.1583,155.338 96.5,154.5C 99.8333,153.167 103.167,151.833 106.5,150.5 Z"/></g>
<g><path style="opacity:1" fill="#772521" d="M 77.5,154.5 C 83.1302,155.292 88.7969,155.625 94.5,155.5C 92.3587,156.163 90.0254,156.497 87.5,156.5C 83.8589,156.685 80.5256,156.019 77.5,154.5 Z"/></g>
<g><path style="opacity:0.452" fill="#aad0d1" d="M 136.5,155.5 C 137.404,156.209 137.737,157.209 137.5,158.5C 127.5,158.5 117.5,158.5 107.5,158.5C 107.5,157.833 107.833,157.5 108.5,157.5C 118.227,158.139 127.56,157.472 136.5,155.5 Z"/></g>
<g><path style="opacity:0.424" fill="#c8dedf" d="M 249.5,155.5 C 250.552,157.256 252.219,157.923 254.5,157.5C 252.735,158.461 250.735,158.795 248.5,158.5C 248.263,157.209 248.596,156.209 249.5,155.5 Z"/></g>
<g><path style="opacity:1" fill="#485c64" d="M 243.5,158.5 C 242.66,160.853 241.326,162.853 239.5,164.5C 239.082,163.778 238.416,163.278 237.5,163C 240.147,162.685 240.813,161.518 239.5,159.5C 240.689,158.571 242.022,158.238 243.5,158.5 Z"/></g>
<g><path style="opacity:1" fill="#163239" d="M 136.5,139.5 C 137.552,139.351 138.552,139.517 139.5,140C 138.24,141.814 138.24,143.647 139.5,145.5C 143.302,149.929 145.302,149.262 145.5,143.5C 146.687,145.072 147.687,146.739 148.5,148.5C 148.5,149.167 148.5,149.833 148.5,150.5C 148.328,151.492 148.662,152.158 149.5,152.5C 149.427,154.027 150.094,155.027 151.5,155.5C 151.427,157.027 152.094,158.027 153.5,158.5C 155.5,162.5 158.5,165.5 162.5,167.5C 164.792,170.305 167.459,172.638 170.5,174.5C 166.167,174.5 161.833,174.5 157.5,174.5C 154.5,172.167 151.833,169.5 149.5,166.5C 149.5,165.833 149.167,165.5 148.5,165.5C 148.5,164.833 148.167,164.5 147.5,164.5C 141.931,157.027 138.265,148.694 136.5,139.5 Z"/></g>
<g><path style="opacity:0.166" fill="#e1dbdb" d="M 158.5,158.5 C 175.167,158.5 191.833,158.5 208.5,158.5C 216.167,158.5 223.833,158.5 231.5,158.5C 232.5,158.5 233.5,158.5 234.5,158.5C 232.885,161.45 230.885,164.116 228.5,166.5C 221.833,166.5 215.167,166.5 208.5,166.5C 212.318,164.238 216.485,162.572 221,161.5C 222.364,162.258 223.531,161.758 224.5,160C 221.518,159.502 218.518,159.335 215.5,159.5C 215.167,159.5 214.833,159.5 214.5,159.5C 214.167,159.5 213.833,159.5 213.5,159.5C 213.167,159.5 212.833,159.5 212.5,159.5C 211.167,159.5 209.833,159.5 208.5,159.5C 208.167,159.5 207.833,159.5 207.5,159.5C 206.833,159.5 206.167,159.5 205.5,159.5C 204.833,159.5 204.167,159.5 203.5,159.5C 203.167,159.5 202.833,159.5 202.5,159.5C 187.657,159.829 172.99,159.496 158.5,158.5 Z"/></g>
<g><path style="opacity:1" fill="#0f2d34" d="M 238.5,147.5 C 238.833,147.5 239.167,147.5 239.5,147.5C 241.115,149.374 243.115,150.708 245.5,151.5C 245.233,153.965 244.566,156.299 243.5,158.5C 242.022,158.238 240.689,158.571 239.5,159.5C 240.813,161.518 240.147,162.685 237.5,163C 238.416,163.278 239.082,163.778 239.5,164.5C 239.5,164.833 239.5,165.167 239.5,165.5C 238.833,165.5 238.5,165.833 238.5,166.5C 236.196,169.141 233.862,171.808 231.5,174.5C 227.5,174.5 223.5,174.5 219.5,174.5C 222.139,172.527 224.473,170.194 226.5,167.5C 227.492,167.672 228.158,167.338 228.5,166.5C 230.885,164.116 232.885,161.45 234.5,158.5C 236.857,155.165 238.191,151.498 238.5,147.5 Z"/></g>
<g><path style="opacity:0.012" fill="#ddebec" d="M 70.5,160.5 C 70.8333,160.5 71.1667,160.5 71.5,160.5C 71.5,162.833 71.5,165.167 71.5,167.5C 52.1638,167.333 32.8305,167.5 13.5,168C 12.7476,168.671 12.4142,169.504 12.5,170.5C 12.2627,171.791 12.596,172.791 13.5,173.5C 13.5,173.833 13.5,174.167 13.5,174.5C 9.91939,172.037 9.91939,169.204 13.5,166C 32.4971,165.5 51.4971,165.333 70.5,165.5C 70.5,163.833 70.5,162.167 70.5,160.5 Z"/></g>
<g><path style="opacity:1" fill="#0d252d" d="M 98.5,156.5 C 99.5,156.5 100.5,156.5 101.5,156.5C 101.433,157.959 101.766,159.292 102.5,160.5C 102.5,162.833 102.5,165.167 102.5,167.5C 102.5,169.833 102.5,172.167 102.5,174.5C 101.833,174.5 101.167,174.5 100.5,174.5C 99.1999,173.173 97.8665,171.84 96.5,170.5C 90.5275,169.67 84.5275,169.17 78.5,169C 77.1888,166.726 77.1888,164.56 78.5,162.5C 78.2155,164.415 78.5489,166.081 79.5,167.5C 84.3158,168.65 89.3158,168.816 94.5,168C 95.807,166.057 95.807,164.223 94.5,162.5C 90.6475,161.834 86.6475,161.167 82.5,160.5C 82.8869,159.28 83.7202,158.613 85,158.5C 86.4681,159.628 88.1348,160.294 90,160.5C 92.9482,159.274 95.7815,157.941 98.5,156.5 Z"/></g>
<g><path style="opacity:0.012" fill="#fbfbfb" d="M 147.5,164.5 C 148.167,164.5 148.5,164.833 148.5,165.5C 133.5,166.833 118.5,166.833 103.5,165.5C 118.343,165.829 133.01,165.496 147.5,164.5 Z"/></g>
<g><path style="opacity:0.045" fill="#f2f4f4" d="M 153.5,158.5 C 153.833,158.5 154.167,158.5 154.5,158.5C 156.846,161.679 159.679,164.346 163,166.5C 168.047,165.883 173.047,165.217 178,164.5C 185.692,165.141 193.359,165.141 201,164.5C 204.93,163.031 205.097,161.864 201.5,161C 202.056,160.617 202.389,160.117 202.5,159.5C 202.833,159.5 203.167,159.5 203.5,159.5C 204.167,160.833 204.833,160.833 205.5,159.5C 206.167,159.5 206.833,159.5 207.5,159.5C 207.833,160.833 208.167,160.833 208.5,159.5C 209.833,159.5 211.167,159.5 212.5,159.5C 212.833,160.833 213.167,160.833 213.5,159.5C 213.833,159.5 214.167,159.5 214.5,159.5C 214.833,160.833 215.167,160.833 215.5,159.5C 218.518,159.335 221.518,159.502 224.5,160C 223.531,161.758 222.364,162.258 221,161.5C 216.485,162.572 212.318,164.238 208.5,166.5C 193.138,166.231 177.805,166.564 162.5,167.5C 158.5,165.5 155.5,162.5 153.5,158.5 Z"/></g>
<g><path style="opacity:1" fill="#b35350" d="M 78.5,162.5 C 83.5,162.5 88.5,162.5 93.5,162.5C 93.5,163.833 93.5,165.167 93.5,166.5C 92.5,166.5 91.5,166.5 90.5,166.5C 87.0381,167.482 83.3714,167.815 79.5,167.5C 78.5489,166.081 78.2155,164.415 78.5,162.5 Z"/></g>
<g><path style="opacity:1" fill="#e5504a" d="M 90.5,166.5 C 87.1667,166.5 83.8333,166.5 80.5,166.5C 80.5,165.5 80.5,164.5 80.5,163.5C 84.5546,163.176 88.5546,163.509 92.5,164.5C 91.7573,165.182 91.0906,165.849 90.5,166.5 Z"/></g>
<g><path style="opacity:0.367" fill="#b1d4d6" d="M 102.5,160.5 C 102.833,160.5 103.167,160.5 103.5,160.5C 103.5,162.167 103.5,163.833 103.5,165.5C 118.5,166.833 133.5,166.833 148.5,165.5C 149.167,165.5 149.5,165.833 149.5,166.5C 134.009,167.496 118.342,167.83 102.5,167.5C 102.5,165.167 102.5,162.833 102.5,160.5 Z"/></g>
<g><path style="opacity:0.61" fill="#add3d4" d="M 239.5,165.5 C 244.897,165.215 250.23,165.549 255.5,166.5C 258.134,169.246 258.134,171.912 255.5,174.5C 255.682,172.409 255.348,170.409 254.5,168.5C 249.015,167.833 243.681,167.167 238.5,166.5C 238.5,165.833 238.833,165.5 239.5,165.5 Z"/></g>
<g><path style="opacity:1" fill="#501f22" d="M 93.5,162.5 C 93.8333,162.5 94.1667,162.5 94.5,162.5C 95.807,164.223 95.807,166.057 94.5,168C 89.3158,168.816 84.3158,168.65 79.5,167.5C 83.3714,167.815 87.0381,167.482 90.5,166.5C 91.5,166.5 92.5,166.5 93.5,166.5C 93.5,165.167 93.5,163.833 93.5,162.5 Z"/></g>
<g><path style="opacity:0.987" fill="#21a0a7" d="M 149.5,166.5 C 151.833,169.5 154.5,172.167 157.5,174.5C 139.167,174.5 120.833,174.5 102.5,174.5C 102.5,172.167 102.5,169.833 102.5,167.5C 118.342,167.83 134.009,167.496 149.5,166.5 Z"/></g>
<g><path style="opacity:1" fill="#209fab" d="M 13.5,173.5 C 12.596,172.791 12.2627,171.791 12.5,170.5C 15.1194,170.232 17.6194,170.565 20,171.5C 22.8203,169.794 25.6536,168.961 28.5,169C 41.2672,168.547 53.9339,168.547 66.5,169C 65.1868,171.326 63.1868,172.659 60.5,173C 44.8369,173.5 29.1702,173.667 13.5,173.5 Z"/></g>
<g><path style="opacity:1" fill="#082830" d="M 78.5,162.5 C 77.1888,164.56 77.1888,166.726 78.5,169C 84.5275,169.17 90.5275,169.67 96.5,170.5C 97.8665,171.84 99.1999,173.173 100.5,174.5C 90.8333,174.5 81.1667,174.5 71.5,174.5C 71.5,172.167 71.5,169.833 71.5,167.5C 71.5,165.167 71.5,162.833 71.5,160.5C 72.5,160.5 73.5,160.5 74.5,160.5C 75.7564,160.096 76.9231,159.429 78,158.5C 78.5,158.833 79,159.167 79.5,159.5C 78.8728,160.417 78.5394,161.417 78.5,162.5 Z"/></g>
<g><path style="opacity:1" fill="#0c595f" d="M 196.5,167.5 C 205.167,167.5 213.833,167.5 222.5,167.5C 221.517,168.85 220.184,169.85 218.5,170.5C 217.359,171.425 217.359,172.259 218.5,173C 217.584,173.278 216.918,173.778 216.5,174.5C 207.5,174.5 198.5,174.5 189.5,174.5C 191.327,173.068 192.994,171.401 194.5,169.5C 196.134,169.968 197.3,170.968 198,172.5C 199.917,170.216 199.417,168.549 196.5,167.5 Z"/></g>
<g><path style="opacity:1" fill="#219ba2" d="M 71.5,167.5 C 71.5,169.833 71.5,172.167 71.5,174.5C 52.1667,174.5 32.8333,174.5 13.5,174.5C 13.5,174.167 13.5,173.833 13.5,173.5C 29.1702,173.667 44.8369,173.5 60.5,173C 63.1868,172.659 65.1868,171.326 66.5,169C 53.9339,168.547 41.2672,168.547 28.5,169C 25.6536,168.961 22.8203,169.794 20,171.5C 17.6194,170.565 15.1194,170.232 12.5,170.5C 12.4142,169.504 12.7476,168.671 13.5,168C 32.8305,167.5 52.1638,167.333 71.5,167.5 Z"/></g>
<g><path style="opacity:1" fill="#6cb9b9" d="M 208.5,166.5 C 215.167,166.5 221.833,166.5 228.5,166.5C 228.158,167.338 227.492,167.672 226.5,167.5C 225.167,167.5 223.833,167.5 222.5,167.5C 213.833,167.5 205.167,167.5 196.5,167.5C 190.491,167.334 184.491,167.501 178.5,168C 179,168.5 179.5,169 180,169.5C 181.049,168.483 182.216,168.316 183.5,169C 181.109,169.691 181.109,170.691 183.5,172C 181.685,172.757 180.019,173.59 178.5,174.5C 175.833,174.5 173.167,174.5 170.5,174.5C 167.459,172.638 164.792,170.305 162.5,167.5C 177.805,166.564 193.138,166.231 208.5,166.5 Z"/></g>
<g><path style="opacity:1" fill="#2d8788" d="M 222.5,167.5 C 223.833,167.5 225.167,167.5 226.5,167.5C 224.473,170.194 222.139,172.527 219.5,174.5C 218.5,174.5 217.5,174.5 216.5,174.5C 216.918,173.778 217.584,173.278 218.5,173C 217.359,172.259 217.359,171.425 218.5,170.5C 220.184,169.85 221.517,168.85 222.5,167.5 Z"/></g>
<g><path style="opacity:1" fill="#27898d" d="M 196.5,167.5 C 199.417,168.549 199.917,170.216 198,172.5C 197.3,170.968 196.134,169.968 194.5,169.5C 192.994,171.401 191.327,173.068 189.5,174.5C 185.833,174.5 182.167,174.5 178.5,174.5C 180.019,173.59 181.685,172.757 183.5,172C 181.109,170.691 181.109,169.691 183.5,169C 182.216,168.316 181.049,168.483 180,169.5C 179.5,169 179,168.5 178.5,168C 184.491,167.501 190.491,167.334 196.5,167.5 Z"/></g>
<g><path style="opacity:0.976" fill="#2a9ea1" d="M 238.5,166.5 C 243.681,167.167 249.015,167.833 254.5,168.5C 255.348,170.409 255.682,172.409 255.5,174.5C 255.167,174.5 254.833,174.5 254.5,174.5C 246.833,174.5 239.167,174.5 231.5,174.5C 233.862,171.808 236.196,169.141 238.5,166.5 Z"/></g>
<g><path style="opacity:0.285" fill="#c5d8d9" d="M 13.5,174.5 C 32.8333,174.5 52.1667,174.5 71.5,174.5C 81.1667,174.5 90.8333,174.5 100.5,174.5C 101.167,174.5 101.833,174.5 102.5,174.5C 120.833,174.5 139.167,174.5 157.5,174.5C 161.833,174.5 166.167,174.5 170.5,174.5C 173.167,174.5 175.833,174.5 178.5,174.5C 182.167,174.5 185.833,174.5 189.5,174.5C 198.5,174.5 207.5,174.5 216.5,174.5C 217.5,174.5 218.5,174.5 219.5,174.5C 223.5,174.5 227.5,174.5 231.5,174.5C 239.167,174.5 246.833,174.5 254.5,174.5C 247.099,175.182 239.599,175.848 232,176.5C 159.069,175.835 86.2357,175.168 13.5,174.5 Z"/></g>
<g><path style="opacity:0.1" fill="#eef0f0" d="M 198.5,186.5 C 195.927,184.156 192.927,183.823 189.5,185.5C 190.286,183.265 191.952,182.265 194.5,182.5C 195.894,182.621 197.228,182.954 198.5,183.5C 199.776,184.614 199.776,185.614 198.5,186.5 Z"/></g>
<g><path style="opacity:1" fill="#183238" d="M 198.5,186.5 C 198.443,187.609 198.11,188.609 197.5,189.5C 194.5,189.5 191.5,189.5 188.5,189.5C 188.433,188.041 188.766,186.708 189.5,185.5C 192.927,183.823 195.927,184.156 198.5,186.5 Z"/></g>
</svg>
